<svg width="24" height="24" viewBox="0 0 24 24" fill="none" xmlns="http://www.w3.org/2000/svg">
<path d="M7.49618 24C6.97218 23.088 6.66318 21.995 6.66318 20.829C6.66318 19.374 7.14518 18.031 7.95818 16.952L7.94618 16.968C8.66918 15.845 9.21718 14.532 9.51118 13.126L9.52418 13.05C9.96718 13.768 10.2302 14.638 10.2302 15.569C10.2302 15.926 10.1912 16.275 10.1182 16.61L10.1242 16.578C11.2942 15.034 11.9982 13.08 11.9982 10.962C11.9982 10.592 11.9762 10.226 11.9352 9.86698L11.9392 9.91098C14.6162 12.13 16.3082 15.455 16.3082 19.176C16.3082 20.922 15.9362 22.58 15.2662 24.077L15.2962 24.001C27.4122 16.676 18.3092 5.71598 16.7252 4.48098C16.9792 5.00998 17.1282 5.62998 17.1282 6.28598C17.1282 7.24098 16.8122 8.12298 16.2792 8.83198L16.2872 8.82098C14.4852 1.50098 10.0182 0.000976562 10.0182 0.000976562C10.5462 3.77498 8.10418 7.90298 5.74718 10.987C5.74818 10.95 5.74818 10.906 5.74818 10.861C5.74818 9.45398 5.41118 8.12598 4.81218 6.95398L4.83518 7.00298C4.67018 9.73698 2.71418 11.966 2.18418 14.701C1.46718 18.415 2.72218 21.131 7.49418 24.001L7.49618 24Z" fill="#C87711"/>
</svg>
