<svg width="483" height="469" viewBox="0 0 483 469" fill="none" xmlns="http://www.w3.org/2000/svg">
<path d="M208.155 468.271C309.655 468.271 391.938 463.145 391.938 456.821C391.938 450.498 309.655 445.372 208.155 445.372C106.655 445.372 24.3726 450.498 24.3726 456.821C24.3726 463.145 106.655 468.271 208.155 468.271Z" fill="#035A04"/>
<path opacity="0.8" d="M208.155 468.271C309.655 468.271 391.938 463.145 391.938 456.821C391.938 450.498 309.655 445.372 208.155 445.372C106.655 445.372 24.3726 450.498 24.3726 456.821C24.3726 463.145 106.655 468.271 208.155 468.271Z" fill="white"/>
<path d="M346.259 21.4526H161.466C148.708 21.4526 138.366 31.7951 138.366 44.5533V434.684C138.366 447.442 148.708 457.785 161.466 457.785H346.259C359.018 457.785 369.36 447.442 369.36 434.684V44.5533C369.36 31.7951 359.018 21.4526 346.259 21.4526Z" fill="#263238"/>
<path d="M359.088 69.366H148.626V409.871H359.088V69.366Z" fill="white" stroke="#263238" stroke-width="1.33739" stroke-miterlimit="10"/>
<path d="M286.12 207.247C303.935 189.431 303.935 160.547 286.12 142.732C268.305 124.917 239.42 124.917 221.605 142.732C203.79 160.547 203.79 189.431 221.605 207.247C239.42 225.062 268.305 225.062 286.12 207.247Z" fill="#035A04"/>
<path d="M313.754 388.459H193.983C193.714 388.461 193.446 388.409 193.197 388.307C192.947 388.205 192.721 388.055 192.529 387.864C192.338 387.674 192.187 387.448 192.083 387.2C191.98 386.951 191.926 386.684 191.926 386.414C191.925 386.144 191.977 385.876 192.08 385.625C192.182 385.375 192.334 385.148 192.525 384.956C192.717 384.765 192.944 384.614 193.194 384.511C193.444 384.408 193.713 384.356 193.983 384.357H313.754C314.024 384.357 314.291 384.411 314.54 384.514C314.789 384.618 315.015 384.769 315.205 384.961C315.395 385.152 315.545 385.379 315.647 385.628C315.749 385.878 315.801 386.145 315.799 386.414C315.799 386.957 315.584 387.477 315.2 387.86C314.817 388.244 314.297 388.459 313.754 388.459Z" fill="#035A04"/>
<path d="M317.654 246.253H190.072C187.438 246.253 185.304 248.387 185.304 251.02V266.06C185.304 268.693 187.438 270.828 190.072 270.828H317.654C320.287 270.828 322.422 268.693 322.422 266.06V251.02C322.422 248.387 320.287 246.253 317.654 246.253Z" fill="#035A04"/>
<path d="M317.654 292.216H190.072C187.438 292.216 185.304 294.351 185.304 296.984V312.024C185.304 314.657 187.438 316.791 190.072 316.791H317.654C320.287 316.791 322.422 314.657 322.422 312.024V296.984C322.422 294.351 320.287 292.216 317.654 292.216Z" fill="#035A04"/>
<path d="M276.577 197.745L263.154 190.017V183.633C265.098 181.281 266.506 178.534 267.28 175.584C267.742 175.748 268.228 175.832 268.718 175.833C270.383 175.833 271.441 170.673 271.619 166.988C273.557 162.886 270.918 160.484 270.918 160.484C270.918 160.484 272.012 159.391 272.737 155.003C273.462 150.616 270.181 152.447 267.625 148.429C265.068 144.41 263.237 140.035 254.844 140.035C252.531 139.959 250.249 140.58 248.294 141.819C246.339 143.057 244.802 144.855 243.882 146.978C241.793 146.986 239.711 147.229 237.676 147.704C235.108 148.429 234.383 156.834 236.57 160.128C237.549 161.928 238.072 163.94 238.092 165.989C237.509 165.276 236.903 165.085 236.57 166.702C235.845 170.352 238.77 175.465 238.77 175.465L240.28 175.037C241.04 178.19 242.508 181.13 244.572 183.633V190.017L231.149 197.745C229.581 198.65 228.279 199.951 227.373 201.519C226.468 203.086 225.99 204.864 225.989 206.674V211.096C233.972 217.264 243.775 220.609 253.863 220.609C263.951 220.609 273.754 217.264 281.737 211.096V206.674C281.738 204.863 281.261 203.084 280.355 201.517C279.45 199.949 278.146 198.648 276.577 197.745Z" fill="#263238"/>
<path d="M202.674 310.68C202.366 310.676 202.072 310.552 201.854 310.335C201.737 310.231 201.643 310.102 201.58 309.959C201.516 309.815 201.484 309.66 201.485 309.503C201.489 309.288 201.55 309.079 201.663 308.897L203.803 305.473L199.63 305.603C199.473 305.613 199.316 305.59 199.168 305.534C199.021 305.479 198.886 305.393 198.774 305.282C198.581 305.065 198.473 304.783 198.473 304.492C198.473 304.2 198.581 303.919 198.774 303.701C198.884 303.586 199.017 303.497 199.165 303.439C199.313 303.382 199.472 303.357 199.63 303.368L203.744 303.523L201.628 300.111C201.513 299.925 201.451 299.711 201.449 299.492C201.448 299.335 201.481 299.18 201.544 299.036C201.608 298.893 201.701 298.765 201.818 298.66C202.037 298.443 202.331 298.32 202.638 298.315C202.841 298.317 203.039 298.375 203.209 298.485C203.38 298.594 203.516 298.75 203.601 298.934L205.634 302.607L207.644 298.957C207.739 298.763 207.886 298.598 208.068 298.48C208.25 298.363 208.461 298.298 208.678 298.292C208.828 298.292 208.977 298.325 209.114 298.386C209.251 298.447 209.374 298.537 209.475 298.648C209.693 298.875 209.812 299.178 209.808 299.492C209.807 299.697 209.754 299.897 209.653 300.075L207.501 303.523L211.674 303.368C211.832 303.357 211.991 303.382 212.139 303.439C212.287 303.497 212.421 303.586 212.53 303.701C212.733 303.912 212.844 304.194 212.839 304.486C212.838 304.78 212.728 305.064 212.53 305.282C212.418 305.393 212.284 305.479 212.136 305.534C211.989 305.59 211.831 305.613 211.674 305.603L207.477 305.473L209.57 308.861C209.687 309.05 209.749 309.269 209.748 309.491C209.748 309.806 209.623 310.109 209.4 310.332C209.177 310.555 208.874 310.68 208.559 310.68C208.355 310.677 208.157 310.615 207.988 310.501C207.819 310.387 207.687 310.226 207.608 310.038L205.623 306.471L203.649 310.038C203.561 310.224 203.424 310.383 203.252 310.496C203.08 310.61 202.88 310.673 202.674 310.68Z" fill="#263238"/>
<path d="M221.958 310.68C221.651 310.676 221.357 310.552 221.138 310.335C221.021 310.231 220.928 310.102 220.864 309.959C220.801 309.815 220.768 309.66 220.769 309.503C220.773 309.289 220.835 309.079 220.948 308.897L223.088 305.473L218.927 305.603C218.768 305.611 218.609 305.586 218.46 305.531C218.311 305.476 218.175 305.391 218.059 305.282C217.901 305.12 217.796 304.913 217.757 304.69C217.718 304.466 217.747 304.236 217.841 304.03C217.935 303.823 218.088 303.65 218.282 303.532C218.476 303.414 218.7 303.357 218.927 303.368L223.028 303.523L220.912 300.111C220.797 299.925 220.735 299.711 220.734 299.492C220.733 299.335 220.765 299.18 220.828 299.037C220.892 298.893 220.985 298.765 221.102 298.66C221.321 298.443 221.615 298.32 221.923 298.315C222.125 298.317 222.323 298.375 222.494 298.485C222.664 298.594 222.8 298.75 222.886 298.934L224.919 302.607L226.928 298.957C227.023 298.763 227.17 298.598 227.352 298.48C227.535 298.363 227.746 298.298 227.962 298.292C228.113 298.291 228.262 298.322 228.399 298.384C228.537 298.445 228.659 298.536 228.759 298.648C228.869 298.759 228.956 298.891 229.015 299.036C229.075 299.181 229.105 299.336 229.104 299.492C229.099 299.698 229.042 299.898 228.937 300.075L226.785 303.523L230.97 303.392C231.127 303.381 231.284 303.406 231.43 303.463C231.576 303.521 231.707 303.61 231.814 303.725C232.017 303.935 232.128 304.217 232.124 304.51C232.123 304.804 232.013 305.088 231.814 305.306C231.705 305.417 231.573 305.502 231.427 305.558C231.281 305.613 231.126 305.637 230.97 305.627L226.762 305.496L228.854 308.885C228.971 309.074 229.033 309.292 229.032 309.515C229.032 309.83 228.907 310.133 228.684 310.356C228.461 310.579 228.159 310.704 227.843 310.704C227.64 310.701 227.441 310.639 227.272 310.525C227.103 310.411 226.971 310.25 226.892 310.062L224.907 306.495L222.933 310.062C222.842 310.244 222.704 310.398 222.532 310.507C222.36 310.615 222.162 310.675 221.958 310.68Z" fill="#263238"/>
<path d="M241.254 310.68C240.942 310.679 240.643 310.555 240.422 310.335C240.305 310.231 240.212 310.102 240.148 309.959C240.085 309.815 240.052 309.66 240.053 309.503C240.057 309.289 240.119 309.079 240.232 308.897L242.372 305.473L238.211 305.603C237.987 305.612 237.765 305.554 237.574 305.437C237.383 305.319 237.231 305.148 237.138 304.944C237.045 304.74 237.015 304.512 237.051 304.291C237.088 304.07 237.189 303.864 237.343 303.701C237.455 303.587 237.591 303.498 237.74 303.44C237.89 303.383 238.051 303.358 238.211 303.368L242.312 303.523L240.196 300.111C240.081 299.925 240.019 299.711 240.018 299.492C240.022 299.336 240.056 299.182 240.119 299.04C240.183 298.897 240.273 298.768 240.386 298.66C240.608 298.44 240.907 298.317 241.219 298.315C241.419 298.319 241.615 298.379 241.783 298.488C241.951 298.597 242.085 298.752 242.17 298.934L244.203 302.607L246.212 298.957C246.307 298.763 246.454 298.598 246.636 298.48C246.819 298.363 247.03 298.298 247.246 298.292C247.397 298.291 247.546 298.322 247.683 298.384C247.821 298.445 247.943 298.536 248.043 298.648C248.153 298.759 248.24 298.891 248.3 299.036C248.359 299.181 248.389 299.336 248.388 299.492C248.384 299.698 248.326 299.898 248.221 300.075L246.069 303.523L250.254 303.368C250.408 303.353 250.564 303.371 250.71 303.42C250.856 303.47 250.99 303.55 251.103 303.656C251.216 303.762 251.304 303.891 251.363 304.034C251.422 304.177 251.449 304.331 251.443 304.486C251.446 304.779 251.34 305.063 251.146 305.282C251.034 305.393 250.9 305.479 250.752 305.534C250.605 305.59 250.447 305.613 250.29 305.603L246.093 305.473L248.174 308.861C248.291 309.05 248.353 309.269 248.352 309.491C248.348 309.647 248.314 309.801 248.251 309.944C248.187 310.087 248.097 310.216 247.984 310.323C247.88 310.435 247.755 310.524 247.616 310.585C247.477 310.646 247.327 310.679 247.175 310.68C246.973 310.677 246.776 310.614 246.609 310.5C246.442 310.386 246.312 310.225 246.236 310.038L244.238 306.471L242.265 310.038C242.176 310.231 242.033 310.394 241.854 310.508C241.675 310.621 241.467 310.681 241.254 310.68Z" fill="#263238"/>
<path d="M260.539 310.68C260.227 310.679 259.928 310.555 259.706 310.335C259.482 310.116 259.354 309.817 259.35 309.503C259.346 309.289 259.404 309.079 259.516 308.897L261.656 305.473L257.495 305.603C257.336 305.611 257.178 305.586 257.029 305.531C256.88 305.476 256.743 305.391 256.627 305.282C256.433 305.065 256.326 304.783 256.326 304.492C256.326 304.2 256.433 303.919 256.627 303.701C256.742 303.59 256.878 303.503 257.027 303.446C257.176 303.389 257.335 303.363 257.495 303.368L261.609 303.523L259.504 300.111C259.389 299.925 259.327 299.711 259.326 299.492C259.33 299.336 259.364 299.182 259.427 299.04C259.491 298.897 259.581 298.768 259.695 298.66C259.916 298.44 260.215 298.317 260.527 298.315C260.729 298.317 260.927 298.375 261.098 298.485C261.268 298.594 261.404 298.75 261.49 298.934L263.511 302.607L265.52 298.957C265.616 298.763 265.762 298.598 265.945 298.48C266.127 298.363 266.338 298.298 266.555 298.292C266.705 298.291 266.854 298.322 266.991 298.384C267.129 298.445 267.251 298.536 267.351 298.648C267.461 298.759 267.549 298.891 267.608 299.036C267.667 299.181 267.697 299.336 267.696 299.492C267.692 299.698 267.634 299.898 267.53 300.075L265.378 303.523L269.563 303.368C269.716 303.353 269.872 303.371 270.018 303.42C270.165 303.47 270.299 303.55 270.411 303.656C270.524 303.762 270.613 303.891 270.671 304.034C270.73 304.177 270.757 304.331 270.751 304.486C270.754 304.779 270.648 305.063 270.454 305.282C270.342 305.393 270.208 305.479 270.061 305.534C269.913 305.59 269.755 305.613 269.598 305.603L265.401 305.473L267.482 308.861C267.599 309.05 267.661 309.269 267.66 309.491C267.661 309.648 267.629 309.803 267.566 309.947C267.502 310.09 267.409 310.219 267.292 310.323C267.188 310.435 267.063 310.524 266.924 310.585C266.785 310.646 266.635 310.679 266.483 310.68C266.281 310.677 266.084 310.614 265.917 310.5C265.75 310.386 265.621 310.225 265.544 310.038L263.547 306.471L261.573 310.038C261.482 310.234 261.336 310.4 261.152 310.514C260.968 310.628 260.755 310.686 260.539 310.68Z" fill="#263238"/>
<path d="M279.823 310.68C279.511 310.679 279.212 310.555 278.99 310.335C278.806 310.149 278.689 309.906 278.657 309.646C278.624 309.386 278.679 309.123 278.812 308.897L280.94 305.473L276.779 305.603C276.62 305.611 276.462 305.586 276.313 305.531C276.163 305.476 276.027 305.391 275.911 305.282C275.717 305.065 275.61 304.783 275.61 304.492C275.61 304.2 275.717 303.919 275.911 303.701C276.026 303.59 276.162 303.503 276.311 303.446C276.46 303.389 276.619 303.363 276.779 303.368L280.893 303.523L278.776 300.111C278.661 299.925 278.6 299.711 278.598 299.492C278.602 299.179 278.731 298.88 278.955 298.66C279.176 298.44 279.475 298.317 279.787 298.315C279.99 298.317 280.188 298.375 280.358 298.485C280.529 298.594 280.664 298.75 280.75 298.934L282.771 302.607L284.78 298.957C284.876 298.763 285.022 298.598 285.205 298.48C285.387 298.363 285.598 298.298 285.815 298.292C285.967 298.291 286.118 298.322 286.257 298.384C286.396 298.445 286.521 298.535 286.623 298.648C286.841 298.875 286.961 299.178 286.956 299.492C286.952 299.698 286.895 299.898 286.79 300.075L284.638 303.523L288.823 303.368C288.977 303.353 289.132 303.371 289.278 303.42C289.425 303.47 289.559 303.55 289.672 303.656C289.784 303.762 289.873 303.891 289.931 304.034C289.99 304.177 290.017 304.331 290.012 304.486C290.014 304.779 289.908 305.063 289.714 305.282C289.602 305.393 289.468 305.479 289.321 305.534C289.173 305.59 289.016 305.613 288.858 305.603L284.662 305.473L286.742 308.861C286.859 309.05 286.921 309.269 286.92 309.491C286.922 309.648 286.889 309.803 286.826 309.947C286.762 310.09 286.669 310.219 286.552 310.323C286.448 310.435 286.323 310.524 286.184 310.585C286.045 310.646 285.895 310.679 285.743 310.68C285.541 310.677 285.345 310.614 285.178 310.5C285.011 310.386 284.881 310.225 284.804 310.038L282.807 306.471L280.833 310.038C280.744 310.231 280.602 310.394 280.422 310.508C280.243 310.622 280.035 310.681 279.823 310.68Z" fill="#263238"/>
<path d="M299.107 310.68C298.799 310.676 298.505 310.552 298.287 310.335C298.17 310.231 298.076 310.102 298.013 309.959C297.949 309.815 297.917 309.66 297.918 309.503C297.922 309.289 297.983 309.079 298.096 308.897L300.224 305.473L296.063 305.603C295.91 305.615 295.756 305.594 295.612 305.543C295.467 305.492 295.334 305.412 295.223 305.306C295.111 305.201 295.022 305.074 294.962 304.933C294.902 304.791 294.872 304.639 294.874 304.486C294.874 304.34 294.902 304.196 294.957 304.061C295.012 303.927 295.093 303.804 295.195 303.701C295.305 303.586 295.438 303.497 295.586 303.439C295.734 303.382 295.893 303.358 296.051 303.368L300.165 303.523L298.049 300.111C297.934 299.925 297.872 299.711 297.87 299.492C297.875 299.179 298.003 298.88 298.227 298.66C298.449 298.44 298.747 298.317 299.059 298.315C299.262 298.317 299.46 298.375 299.63 298.485C299.801 298.594 299.937 298.75 300.022 298.934L302.044 302.607L304.065 298.957C304.159 298.764 304.304 298.601 304.484 298.483C304.664 298.366 304.872 298.3 305.087 298.292C305.239 298.291 305.39 298.322 305.529 298.384C305.669 298.445 305.794 298.535 305.896 298.648C306.114 298.875 306.233 299.178 306.228 299.492C306.228 299.697 306.175 299.897 306.074 300.075L303.922 303.523L308.095 303.368C308.253 303.358 308.412 303.382 308.56 303.439C308.708 303.497 308.842 303.586 308.951 303.701C309.154 303.912 309.265 304.194 309.26 304.486C309.259 304.78 309.149 305.064 308.951 305.282C308.839 305.393 308.705 305.479 308.557 305.534C308.41 305.59 308.252 305.613 308.095 305.603L303.898 305.473L305.979 308.861C306.096 309.05 306.158 309.269 306.157 309.491C306.153 309.805 306.025 310.104 305.801 310.323C305.584 310.544 305.29 310.672 304.98 310.68C304.778 310.677 304.581 310.614 304.414 310.5C304.247 310.386 304.118 310.225 304.041 310.038L302.044 306.471L300.07 310.038C299.984 310.224 299.849 310.382 299.679 310.495C299.509 310.608 299.311 310.672 299.107 310.68Z" fill="#263238"/>
<g style="mix-blend-mode:multiply">
<path d="M359.088 69.8179H148.626V83.0029H359.088V69.8179Z" fill="#035A04"/>
</g>
<path d="M276.744 45.5283H230.97C230.144 45.5283 229.352 45.2001 228.768 44.6159C228.184 44.0317 227.855 43.2394 227.855 42.4133C227.855 41.5872 228.184 40.7949 228.768 40.2107C229.352 39.6265 230.144 39.2983 230.97 39.2983H276.744C277.57 39.2983 278.362 39.6265 278.946 40.2107C279.53 40.7949 279.859 41.5872 279.859 42.4133C279.859 43.2394 279.53 44.0317 278.946 44.6159C278.362 45.2001 277.57 45.5283 276.744 45.5283Z" fill="#035A04" stroke="#263238" stroke-width="1.33739" stroke-linecap="round" stroke-linejoin="round"/>
<path d="M266.341 429.108C266.343 426.638 265.612 424.223 264.242 422.168C262.871 420.113 260.921 418.511 258.64 417.565C256.358 416.619 253.847 416.37 251.424 416.852C249.002 417.333 246.776 418.522 245.03 420.269C243.283 422.015 242.094 424.241 241.613 426.663C241.131 429.086 241.379 431.597 242.326 433.879C243.272 436.16 244.874 438.11 246.929 439.481C248.984 440.851 251.399 441.582 253.869 441.58C257.176 441.576 260.346 440.261 262.684 437.923C265.022 435.585 266.337 432.415 266.341 429.108Z" fill="#035A04"/>
<path d="M260.194 422.783H247.544V435.433H260.194V422.783Z" fill="#035A04" stroke="#263238" stroke-width="1.33739" stroke-linecap="round" stroke-linejoin="round"/>
<path d="M92.6756 202.132L53.5246 189.351L50.0411 180.149L42.0872 179.9L27.6538 177.165L29.3896 180.149L47.5562 193.334L52.0385 195.569L92.9847 216.958L92.6756 202.132Z" fill="white" stroke="#263238" stroke-width="1.00396" stroke-miterlimit="10"/>
<path d="M50.0412 180.149L46.308 177.914L38.8535 180.649L40.09 182.135L50.0412 180.149Z" fill="white" stroke="#263238" stroke-width="1.00396" stroke-linejoin="round"/>
<path d="M92.6756 202.132L53.5246 189.351L50.0411 180.149L42.0872 179.9L27.6538 177.165L29.3896 180.149L47.5562 193.334L52.0385 195.569L92.9847 216.958L92.6756 202.132Z" fill="white"/>
<mask id="mask0_394_761" style="mask-type:luminance" maskUnits="userSpaceOnUse" x="27" y="177" width="66" height="40">
<path d="M92.6756 202.132L53.5246 189.351L50.0411 180.149L42.0872 179.9L27.6538 177.165L29.3896 180.149L47.5562 193.334L52.0385 195.569L92.9847 216.958L92.6756 202.132Z" fill="white"/>
</mask>
<g mask="url(#mask0_394_761)">
<path opacity="0.5" d="M92.6756 202.132L53.5246 189.351L50.0411 180.149L42.0872 179.9L27.6538 177.165L29.3896 180.149L47.5562 193.334L52.0385 195.569L92.9847 216.958L92.6756 202.132Z" fill="#035A04" stroke="#263238" stroke-width="1.00396" stroke-miterlimit="10"/>
</g>
<path d="M92.6756 202.132L53.5246 189.351L50.0411 180.149L42.0872 179.9L27.6538 177.165L29.3896 180.149L47.5563 193.334L52.0385 195.569L92.9847 216.958L92.6756 202.132Z" stroke="#263238" stroke-width="1.00396" stroke-miterlimit="10"/>
<path d="M50.0412 180.149L46.308 177.914L38.8535 180.649L40.09 182.135L50.0412 180.149Z" fill="white"/>
<mask id="mask1_394_761" style="mask-type:luminance" maskUnits="userSpaceOnUse" x="38" y="177" width="13" height="6">
<path d="M50.0412 180.149L46.308 177.914L38.8535 180.649L40.09 182.135L50.0412 180.149Z" fill="white"/>
</mask>
<g mask="url(#mask1_394_761)">
<path opacity="0.5" d="M50.0412 180.149L46.308 177.914L38.8535 180.649L40.09 182.135L50.0412 180.149Z" fill="#035A04" stroke="#263238" stroke-width="1.00396" stroke-linejoin="round"/>
</g>
<path d="M50.0412 180.149L46.308 177.914L38.8535 180.649L40.09 182.135L50.0412 180.149Z" stroke="#263238" stroke-width="1.00396" stroke-linejoin="round"/>
<path d="M100.986 119.182C100.986 119.182 100.38 124.532 101.89 127.968C103.4 131.404 111.782 143.043 111.782 143.043L96.1356 155.586C96.1356 155.586 89.6442 142.508 88.4077 140.392C87.1712 138.276 85.6851 129.168 89.7155 122.641C93.7459 116.114 99.5478 114.355 100.986 119.182Z" fill="white"/>
<mask id="mask2_394_761" style="mask-type:luminance" maskUnits="userSpaceOnUse" x="87" y="116" width="25" height="40">
<path d="M100.986 119.182C100.986 119.182 100.38 124.532 101.89 127.968C103.4 131.404 111.782 143.043 111.782 143.043L96.1356 155.586C96.1356 155.586 89.6442 142.508 88.4077 140.392C87.1712 138.276 85.6851 129.168 89.7155 122.641C93.7459 116.114 99.5478 114.355 100.986 119.182Z" fill="white"/>
</mask>
<g mask="url(#mask2_394_761)">
<g style="mix-blend-mode:multiply" opacity="0.5">
<path d="M92.9495 136.373L99.7382 150.45L96.1239 155.598L89.2996 143.411L92.9495 136.373Z" fill="#035A04"/>
</g>
</g>
<path d="M100.986 119.182C100.986 119.182 100.38 124.532 101.89 127.968C103.4 131.404 111.782 143.043 111.782 143.043L96.1356 155.586C96.1356 155.586 89.6441 142.508 88.4077 140.392C87.1712 138.276 85.6851 129.168 89.7155 122.641C93.7459 116.114 99.5478 114.355 100.986 119.182Z" stroke="#263238" stroke-width="1.00396" stroke-miterlimit="10"/>
<path d="M105.837 109.385C104.874 103.44 98.0615 91.3491 87.2543 91.8128C80.2397 92.1219 76.9583 93.5367 73.9147 95.2606C71.4337 96.7223 69.1212 98.4527 67.019 100.421C61.7402 106.757 59.8855 108.493 60.908 113.344C60.8241 115.279 61.1272 117.211 61.7996 119.027C63.4166 123.343 64.5223 126.161 65.9252 128.217C65.4972 130.227 64.3796 135.529 64.3201 136.742C64.2607 137.955 67.8869 137.11 69.7178 136.647C73.1181 144.256 79.348 149.535 81.286 150.141C84.6625 151.199 90.0007 145.647 92.8303 141.343C95.6599 137.039 93.5199 132.2 93.5318 130.274C93.5437 128.348 99.8925 124.116 102.247 122.772C104.601 121.429 106.788 115.318 105.837 109.385Z" fill="white"/>
<path d="M105.837 109.385C104.874 103.44 98.0615 91.3491 87.2543 91.8128C80.2397 92.1219 76.9583 93.5367 73.9147 95.2606C71.4337 96.7223 69.1212 98.4527 67.019 100.421C61.7402 106.757 59.8855 108.493 60.908 113.344C60.8241 115.279 61.1272 117.211 61.7996 119.027C63.4166 123.343 64.5223 126.161 65.9252 128.217C65.4972 130.227 64.3796 135.529 64.3201 136.742C64.2607 137.955 67.8869 137.11 69.7178 136.647C73.1181 144.256 79.348 149.535 81.286 150.141C84.6625 151.199 90.0007 145.647 92.8303 141.343C95.6599 137.039 93.5199 132.2 93.5318 130.274C93.5437 128.348 99.8925 124.116 102.247 122.772C104.601 121.429 106.788 115.318 105.837 109.385Z" stroke="#263238" stroke-miterlimit="10"/>
<path d="M73.2844 102.644C73.2844 102.644 76.4469 100.943 80.3228 104.582C84.1987 108.22 91.7364 113.082 101.723 110.407" stroke="white" stroke-width="0.5" stroke-linecap="round" stroke-linejoin="round"/>
<path d="M72.8447 99.7309C72.8447 99.7309 75.0204 96.3306 78.6585 96.3306C82.2966 96.3306 90.7973 101.431 97.586 101.431" stroke="white" stroke-width="0.5" stroke-linecap="round" stroke-linejoin="round"/>
<path d="M70.3718 106.282C70.3718 106.282 66.2463 101.193 62.3704 105.319C58.4945 109.444 60.9556 113.344 60.9556 113.344" stroke="white" stroke-width="0.5" stroke-linecap="round" stroke-linejoin="round"/>
<path d="M53.8816 109.682C56.2457 107.55 57.7154 104.602 57.9952 101.431C58.4827 96.0929 65.7707 91.4799 70.3718 95.8551" stroke="white" stroke-width="0.5" stroke-linecap="round" stroke-linejoin="round"/>
<path d="M61.3953 90.2672C61.3953 90.2672 68.6833 83.2288 74.7468 92.2051" stroke="white" stroke-width="0.5" stroke-linecap="round" stroke-linejoin="round"/>
<path d="M120.71 436.325C120.71 436.325 125.193 443.292 124.693 447.774L124.206 452.257C124.206 452.257 107.763 456.763 104.28 456.763C100.796 456.763 82.3559 455.015 82.3559 455.015L81.5594 451.852C81.5036 451.619 81.5299 451.373 81.6338 451.157C81.7377 450.94 81.9129 450.766 82.13 450.664L98.5727 442.995L103.756 437.324L120.71 436.325Z" fill="white" stroke="#263238" stroke-width="1.00396" stroke-miterlimit="10"/>
<path d="M106.776 453.255C111.235 453.6 119.7 450.877 124.61 449.142L124.265 452.257C124.265 452.257 107.763 456.763 104.28 456.763C100.796 456.763 82.3561 455.015 82.3561 455.015L81.7854 452.756C84.7339 452.768 100.879 452.803 106.776 453.255Z" fill="#035A04" stroke="#263238" stroke-width="1.00396" stroke-miterlimit="10"/>
<path d="M98.5966 442.995L74.6637 453.41C74.6637 453.41 72.6188 458.534 74.6637 459.557C76.7087 460.579 121.293 459.557 121.293 459.557C121.293 459.557 124.372 451.46 119.51 446.027C114.647 440.593 98.5966 442.995 98.5966 442.995Z" fill="white" stroke="#263238" stroke-width="1.00396" stroke-miterlimit="10"/>
<path d="M121.293 459.556C121.293 459.556 76.7086 460.579 74.6636 459.556C73.6768 459.057 73.6412 457.618 73.8671 456.251H122.078C121.92 457.375 121.657 458.481 121.293 459.556Z" fill="#035A04" stroke="#263238" stroke-width="1.00396" stroke-miterlimit="10"/>
<path d="M87.278 262.029C87.278 262.029 81.0243 289.743 78.6583 307.077C76.2924 324.412 74.9014 359.14 75.4007 363.123C75.9 367.106 100.796 433.839 100.796 433.839L103.281 439.784L120.71 436.3C120.71 436.3 112.745 410.905 109.76 396.959C106.776 383.013 100.249 360.103 100.249 356.12C100.249 352.137 115.705 276.07 116.811 271.077C117.916 266.083 122.934 258.415 122.934 258.415L89.5607 257.737L87.278 262.029Z" fill="#035A04" stroke="#263238" stroke-width="1.00396" stroke-miterlimit="10"/>
<path d="M87.278 262.029C87.278 262.029 83.6161 287.341 85.1261 304.937C86.636 322.533 89.8817 359.996 89.8817 365.572C89.8817 371.148 98.8818 404.45 99.393 414.912C100.19 430.023 99.072 437.501 99.072 437.501L98.537 442.982C98.537 442.982 109.035 444.48 111.33 445.134C113.98 445.817 116.715 446.113 119.45 446.014C119.45 446.014 123.266 429.215 123.266 414.9C123.266 400.586 120.092 371.124 118.511 359.188C116.93 347.251 121.911 301.204 124.741 292.608C127.57 284.012 133.753 265.81 129.591 256.513C125.43 247.216 87.278 262.029 87.278 262.029Z" fill="#035A04" stroke="#263238" stroke-width="1.00396" stroke-miterlimit="10"/>
<path d="M134.216 251.852L133.836 263.171C133.836 263.171 127.059 264.514 117.928 266.096C110.391 267.403 91.463 265.751 85.0904 265.132C84.5097 265.081 83.9728 264.802 83.5965 264.357C83.2202 263.912 83.035 263.336 83.0812 262.755L83.6994 252.53L134.216 251.852Z" fill="#263238"/>
<path d="M107.727 139.024C107.727 139.024 97.0272 150.593 92.9968 157.785C88.9663 164.978 87.3732 176 85.8633 184.679C84.3533 193.358 88.4432 213.736 87.29 223.093L83.64 252.566C83.64 252.566 82.8553 254.563 85.4828 256.751C88.1103 258.938 100.939 259.735 112.531 260.318C116.763 260.532 129.401 257.809 131.47 257.678C133.967 257.524 134.05 254.349 134.157 251.852C134.656 240.118 136.773 208.838 138.164 195.213C141.029 167.428 125.347 140.606 107.727 139.024Z" fill="white" stroke="#263238" stroke-width="1.00396" stroke-miterlimit="10"/>
<g style="mix-blend-mode:multiply">
<path d="M136.856 211.014C137.331 204.843 137.807 199.243 138.223 195.213C138.342 194.024 138.413 192.835 138.473 191.646L110.046 196.402L85.6255 188.079C85.6282 193.132 85.9139 198.181 86.4815 203.202L110.438 209.908L136.856 211.014Z" fill="#035A04"/>
</g>
<g style="mix-blend-mode:multiply">
<path d="M106.669 140.19C105.052 141.985 101.842 145.635 98.7869 149.511L116.835 167.856L122.779 165.478L106.669 140.19Z" fill="#035A04"/>
</g>
<path d="M107.727 139.024C107.727 139.024 97.0272 150.593 92.9967 157.785C91.8016 159.972 90.8336 162.274 90.1077 164.657L111.627 139.797C110.356 139.412 109.05 139.153 107.727 139.024Z" fill="#263238"/>
<g style="mix-blend-mode:multiply">
<path d="M86.6956 179.995L110.046 187.675L138.401 184.417C137.957 177.354 136.388 170.406 133.753 163.837L110.89 173.004L90.4525 163.742C88.7814 169.054 87.5253 174.488 86.6956 179.995Z" fill="#035A04"/>
</g>
<g style="mix-blend-mode:multiply">
<path d="M126.893 240.118C115.05 242.106 102.898 241.113 91.5345 237.229L85.8396 235.279L84.0681 249.546L90.5596 251.365C102.9 254.815 115.798 255.809 128.522 254.29L133.765 253.659C134.038 253.082 134.191 252.455 134.217 251.817C134.359 248.642 134.609 244.029 134.93 238.739L126.893 240.118Z" fill="#035A04"/>
</g>
<g style="mix-blend-mode:multiply">
<path d="M130.067 220.691C118.224 222.687 106.069 221.69 94.7089 217.79L87.4565 215.305C87.6364 217.895 87.6006 220.496 87.3495 223.08L86.5054 229.94L93.734 231.962C106.07 235.416 118.964 236.413 131.684 234.898L135.251 234.47C135.548 229.715 135.893 224.65 136.261 219.644L130.067 220.691Z" fill="#035A04"/>
</g>
<path d="M18.5246 170.414L41.5127 188.897L42.5035 187.665L19.5154 169.182L18.5246 170.414Z" fill="#263238"/>
<path d="M118.796 151.853C118.796 151.853 127.225 157.595 127.416 171.161C127.499 177.106 126.881 182.658 125.513 192.395C124.146 202.132 115.657 233.841 109.047 237.693C102.436 241.545 92.1761 234.269 92.1761 234.269L42.5508 201.324L30.5547 191.634L24.6101 180.411L26.4767 176.844L41.1122 188.067L33.2297 180.779L34.7753 178.818L37.6287 180.803L45.9511 183.918L47.7702 195.807L50.3382 197.567L97.8116 214.913C97.8116 214.913 97.2171 189.363 97.6571 184.477C98.0969 179.59 98.7033 167.309 103.935 158.404" fill="white"/>
<mask id="mask3_394_761" style="mask-type:luminance" maskUnits="userSpaceOnUse" x="24" y="151" width="104" height="88">
<path d="M118.796 151.853C118.796 151.853 127.225 157.595 127.416 171.161C127.499 177.106 126.881 182.658 125.513 192.395C124.146 202.132 115.657 233.841 109.047 237.693C102.436 241.545 92.1761 234.269 92.1761 234.269L42.5508 201.324L30.5547 191.634L24.6101 180.411L26.4767 176.844L41.1122 188.067L33.2297 180.779L34.7753 178.818L37.6287 180.803L45.9511 183.918L47.7702 195.807L50.3382 197.567L97.8116 214.913C97.8116 214.913 97.2171 189.363 97.6571 184.477C98.0969 179.59 98.7033 167.309 103.935 158.404" fill="white"/>
</mask>
<g mask="url(#mask3_394_761)">
<g style="mix-blend-mode:multiply" opacity="0.5">
<path d="M97.4786 195.605C97.4786 204.427 97.7758 214.913 97.7758 214.913L50.35 197.638L47.7819 195.879L45.9629 183.989L37.6405 180.874L34.799 178.853L33.2534 180.815L41.1121 188.067L26.4766 176.844L24.7051 180.351L30.6497 191.575L42.6458 201.324L45.6656 203.333L111.234 224.46L97.4786 195.605Z" fill="#035A04"/>
</g>
</g>
<path d="M118.796 151.853C118.796 151.853 127.225 157.595 127.416 171.161C127.499 177.106 126.881 182.658 125.513 192.395C124.146 202.132 115.657 233.841 109.047 237.693C102.436 241.545 92.1761 234.269 92.1761 234.269L42.5508 201.324L30.5547 191.634L24.6101 180.411L26.4767 176.844L41.1122 188.067L33.2297 180.779L34.7753 178.818L37.6287 180.803L45.9511 183.918L47.7702 195.807L50.3382 197.567L97.8116 214.913C97.8116 214.913 97.2172 189.363 97.657 184.477C98.0969 179.59 98.7033 167.309 103.935 158.404" stroke="#263238" stroke-width="1.00396" stroke-miterlimit="10"/>
<path d="M97.8118 214.913L115.931 227.991L120.627 219.669C120.627 219.669 123.873 217.113 124.348 215.186C124.824 213.26 124.218 210.134 124.705 208.208C125.193 206.281 127.618 204.474 127.844 199.814C128.07 195.153 127.844 191.265 127.844 191.265C127.844 191.265 131.767 175.132 131.339 168.117C130.911 161.103 124.146 148.702 118.725 148.429C113.303 148.155 106.253 148.976 100.784 157.251C95.3151 165.525 96.4327 189.684 95.5767 191.194C94.7207 192.704 95.9096 200.159 95.9096 200.159C95.4344 200.513 95.0402 200.965 94.7532 201.483C94.4662 202.002 94.293 202.576 94.2451 203.167C94.15 205.104 96.2425 209.872 96.2425 209.872L97.8118 214.913Z" fill="white" stroke="#263238" stroke-width="1.00396" stroke-miterlimit="10"/>
<g style="mix-blend-mode:multiply">
<path d="M96.0523 184.988C96.0896 187.063 95.9344 189.136 95.5886 191.182C94.8277 192.538 95.6956 198.661 95.8859 199.909C106.077 203.074 116.853 203.887 127.404 202.287C127.631 201.46 127.766 200.611 127.808 199.754C128.046 195.106 127.808 191.206 127.808 191.206C127.808 191.206 128.153 189.767 128.629 187.58C117.702 188.274 106.732 187.402 96.0523 184.988Z" fill="#035A04"/>
</g>
<g style="mix-blend-mode:multiply">
<path d="M100.047 158.57C98.3469 161.982 97.3958 167.107 96.8489 172.302C107.642 176.421 119.279 177.838 130.745 176.428C131.202 173.678 131.405 170.892 131.351 168.105C131.145 165.903 130.625 163.741 129.806 161.685C119.794 161.919 109.793 160.872 100.047 158.57Z" fill="#035A04"/>
</g>
<path d="M96.2424 210.002L97.7761 214.913L115.895 227.991L120.591 219.668C120.591 219.668 123.837 217.112 124.313 215.186C124.398 214.851 124.449 214.509 124.467 214.164C114.919 213.999 105.432 212.6 96.2424 210.002Z" fill="#263238"/>
<path d="M109.356 444.979C109.356 444.979 109.761 434.683 111.734 419.632C113.708 404.58 108.964 383.203 108.167 379.637C107.371 376.07 108.572 368.152 107.775 365.37C106.978 362.588 103.126 350.722 105.397 336.955C107.668 323.187 109.511 286.794 109.511 286.794C109.511 286.794 103.792 282.146 102.116 276.094C100.439 270.042 101.723 268.14 101.723 268.14" stroke="#263238" stroke-width="1.00396" stroke-miterlimit="10"/>
<path d="M112.008 268.699L109.808 280.874" stroke="#263238" stroke-width="1.00396" stroke-miterlimit="10"/>
</svg>
