<svg width="571" height="437" viewBox="0 0 571 437" fill="none" xmlns="http://www.w3.org/2000/svg">
<path d="M295.373 436.53C447.562 436.53 570.936 429.799 570.936 421.497C570.936 413.194 447.562 406.464 295.373 406.464C143.184 406.464 19.8105 413.194 19.8105 421.497C19.8105 429.799 143.184 436.53 295.373 436.53Z" fill="#035A04"/>
<path opacity="0.3" d="M295.373 436.53C447.562 436.53 570.936 429.799 570.936 421.497C570.936 413.194 447.562 406.464 295.373 406.464C143.184 406.464 19.8105 413.194 19.8105 421.497C19.8105 429.799 143.184 436.53 295.373 436.53Z" fill="white"/>
<path d="M434.321 28.0579H286.018C279.946 28.0579 275.024 32.9799 275.024 39.0515V402.98C275.024 409.051 279.946 413.973 286.018 413.973H434.321C440.392 413.973 445.314 409.051 445.314 402.98V39.0515C445.314 32.9799 440.392 28.0579 434.321 28.0579Z" fill="white" stroke="#263238" stroke-linecap="round" stroke-linejoin="round"/>
<path d="M439.623 95.6161C439.023 95.6161 438.448 95.3778 438.023 94.9534C437.599 94.5291 437.361 93.9536 437.361 93.3536V63.0239C437.405 62.4526 437.664 61.9192 438.085 61.5302C438.505 61.1411 439.057 60.925 439.63 60.925C440.203 60.925 440.755 61.1411 441.176 61.5302C441.596 61.9192 441.855 62.4526 441.9 63.0239V93.298C441.905 93.6005 441.85 93.901 441.738 94.182C441.627 94.463 441.46 94.7189 441.248 94.9347C441.036 95.1505 440.783 95.322 440.504 95.439C440.225 95.556 439.926 95.6162 439.623 95.6161Z" fill="#263238"/>
<path d="M439.623 123.711C439.023 123.711 438.448 123.473 438.023 123.048C437.599 122.624 437.361 122.049 437.361 121.448V104.5C437.405 103.929 437.664 103.395 438.085 103.006C438.505 102.617 439.057 102.401 439.63 102.401C440.203 102.401 440.755 102.617 441.176 103.006C441.596 103.395 441.855 103.929 441.9 104.5V121.448C441.896 122.05 441.655 122.625 441.228 123.049C440.801 123.473 440.225 123.711 439.623 123.711Z" fill="#263238"/>
<path d="M421.481 28.0579H273.178C267.106 28.0579 262.184 32.9799 262.184 39.0515V402.98C262.184 409.051 267.106 413.973 273.178 413.973H421.481C427.552 413.973 432.474 409.051 432.474 402.98V39.0515C432.474 32.9799 427.552 28.0579 421.481 28.0579Z" fill="#263238" stroke="#263238" stroke-linecap="round" stroke-linejoin="round"/>
<path d="M421.134 53.7512H273.525V384.754H421.134V53.7512Z" fill="#035A04"/>
<path d="M325.411 43.1743H364.708" stroke="white" stroke-width="3" stroke-linecap="round" stroke-linejoin="round"/>
<path d="M342.041 396.469C342.041 399.176 340.347 401.369 338.251 401.369C336.155 401.369 334.476 399.176 334.476 396.469C334.476 393.763 336.169 391.556 338.251 391.556C340.333 391.556 342.041 393.749 342.041 396.469Z" fill="white"/>
<path d="M347.329 136.12C361.466 136.12 372.926 122.759 372.926 106.276C372.926 89.7942 361.466 76.4326 347.329 76.4326C333.193 76.4326 321.733 89.7942 321.733 106.276C321.733 122.759 333.193 136.12 347.329 136.12Z" fill="white"/>
<path d="M347.329 105.902C352.696 105.902 357.046 100.824 357.046 94.5611C357.046 88.2978 352.696 83.2205 347.329 83.2205C341.963 83.2205 337.613 88.2978 337.613 94.5611C337.613 100.824 341.963 105.902 347.329 105.902Z" fill="#263238" stroke="#263238" stroke-linecap="round" stroke-linejoin="round"/>
<path d="M347.329 108.914C337.613 108.914 329.659 116.368 329.659 125.571C329.667 126.427 329.746 127.282 329.895 128.125C332.05 130.64 334.725 132.66 337.734 134.044C340.743 135.429 344.017 136.145 347.329 136.145C350.642 136.145 353.915 135.429 356.925 134.044C359.934 132.66 362.608 130.64 364.764 128.125C364.901 127.28 364.976 126.427 364.986 125.571C364.986 116.368 357.074 108.914 347.329 108.914Z" fill="#263238" stroke="#263238" stroke-linecap="round" stroke-linejoin="round"/>
<path d="M378.45 236.271H316.208C314.561 236.206 313.007 235.49 311.888 234.279C310.769 233.069 310.176 231.464 310.24 229.816V191.394C310.24 169.254 326.897 151.237 347.329 151.237C367.762 151.237 384.405 169.282 384.405 191.394V229.789C384.44 230.605 384.314 231.421 384.034 232.189C383.754 232.957 383.325 233.663 382.772 234.265C382.219 234.867 381.552 235.354 380.811 235.698C380.069 236.042 379.267 236.237 378.45 236.271ZM322.163 223.362H372.481V191.436C372.481 176.417 361.196 164.188 347.329 164.188C333.462 164.188 322.163 176.417 322.163 191.436V223.362Z" fill="#263238"/>
<path d="M390.54 210.05H304.118V291.808H390.54V210.05Z" fill="white"/>
<path d="M359.919 266.337L353.506 250.915C354.924 249.843 356.071 248.453 356.855 246.857C357.638 245.261 358.037 243.504 358.018 241.726C358.018 235.577 353.423 230.621 347.746 230.621C342.069 230.621 337.488 235.591 337.488 241.726C337.466 243.503 337.862 245.26 338.643 246.856C339.424 248.452 340.569 249.842 341.985 250.915L335.586 266.337H359.919Z" fill="#263238" stroke="#263238" stroke-linecap="round" stroke-linejoin="round"/>
<path d="M320.997 365.279C321.13 365.377 321.29 365.43 321.455 365.432C321.573 365.432 321.689 365.402 321.793 365.347C321.898 365.291 321.986 365.211 322.052 365.113L421.134 230.344V227.79L320.886 364.224C320.824 364.301 320.778 364.389 320.75 364.483C320.722 364.578 320.713 364.677 320.723 364.775C320.733 364.873 320.763 364.968 320.81 365.055C320.857 365.141 320.921 365.218 320.997 365.279Z" fill="white"/>
<path d="M401.201 102.306C401.142 102.386 401.099 102.477 401.076 102.574C401.052 102.67 401.048 102.771 401.063 102.869C401.079 102.967 401.114 103.061 401.166 103.146C401.218 103.23 401.287 103.304 401.367 103.361C401.53 103.477 401.732 103.524 401.929 103.493C402.126 103.462 402.303 103.355 402.422 103.195L421.134 77.7512V75.2527L401.201 102.306Z" fill="white"/>
<path d="M273.525 278.552L395.843 112.217C395.961 112.055 396.009 111.853 395.978 111.655C395.947 111.458 395.838 111.28 395.676 111.163C395.514 111.045 395.312 110.996 395.114 111.027C394.917 111.059 394.739 111.167 394.621 111.329L273.58 275.998L273.525 278.552Z" fill="white"/>
<path d="M309.504 381.687C309.622 381.685 309.738 381.656 309.844 381.603C309.95 381.551 310.042 381.475 310.115 381.381L317.055 371.998C317.114 371.918 317.157 371.827 317.18 371.731C317.204 371.634 317.208 371.534 317.193 371.436C317.177 371.337 317.142 371.243 317.09 371.159C317.038 371.074 316.969 371.001 316.889 370.943C316.726 370.827 316.524 370.78 316.327 370.811C316.13 370.842 315.953 370.949 315.834 371.11L308.893 380.479C308.834 380.558 308.79 380.648 308.765 380.744C308.741 380.84 308.735 380.94 308.749 381.038C308.764 381.137 308.797 381.231 308.848 381.316C308.899 381.401 308.966 381.475 309.046 381.534C309.176 381.637 309.338 381.691 309.504 381.687Z" fill="white"/>
<path d="M421.134 257.328L339.792 367.972C339.709 368.084 339.66 368.217 339.649 368.356C339.637 368.494 339.665 368.634 339.728 368.758C339.792 368.882 339.888 368.985 340.008 369.057C340.127 369.129 340.263 369.167 340.403 369.166C340.522 369.168 340.639 369.141 340.746 369.088C340.852 369.035 340.944 368.957 341.013 368.86L421.134 259.868V257.328Z" fill="white"/>
<path d="M135.452 101.821C136.828 98.7711 137.493 95.4484 137.395 92.104C137.395 85.8993 129.886 82.3042 121.058 81.3186C112.229 80.3331 108.315 83.9282 109.62 86.2186C110.976 88.1075 112.631 89.7625 114.52 91.1185C114.52 91.1185 105.691 86.2186 99.806 90.1468C93.9205 94.0751 102.429 92.4372 100.792 96.3516C99.1536 100.266 90.0061 98.6419 87.7157 109.094C85.4254 119.547 91.9633 130.013 86.0778 134.593C80.1923 139.174 62.4804 132.955 57.3167 144.393C52.153 155.831 59.4821 160.911 47.0726 168.102C34.6631 175.292 25.6128 182.316 29.2079 199.958C32.8031 217.601 44.5741 223.778 67.7828 217.545C90.9916 211.313 89.3537 197.279 96.9326 182.843C104.512 168.407 116.227 171.405 119.822 163.23C123.417 155.054 118.837 145.254 119.17 137.73C119.503 130.207 127.012 128.583 129.955 119.685C132.898 110.788 135.452 101.821 135.452 101.821Z" fill="#263238" stroke="#263238" stroke-linecap="round" stroke-linejoin="round"/>
<path d="M31.915 199.625C31.3063 200.854 30.9971 202.21 31.0128 203.581" stroke="white" stroke-width="0.5" stroke-linecap="round" stroke-linejoin="round"/>
<path d="M122.904 95.3383C122.904 95.3383 118.823 90.6188 126.679 92.812C136.576 95.5882 124.958 107.04 120.489 109.344C111.521 113.939 99.6672 112.467 92.7268 120.824C86.4249 128.375 94.9339 136.245 91.1583 142.228C87.3827 148.211 72.2664 144.74 67.2415 151.944C62.2167 159.149 76.3613 174.612 61.8835 183.107C51.4174 189.256 39.9518 191.616 34.4133 196.488" stroke="white" stroke-width="0.5" stroke-linecap="round" stroke-linejoin="round"/>
<path d="M99.4313 123.267C98.5734 125.274 98.3131 127.486 98.6817 129.638C99.931 134.982 107.177 145.06 100.569 150.723C93.9622 156.386 82.6215 156.067 80.7476 162.702C78.8737 169.337 82.6354 187.563 76.3474 196.016C70.0594 204.47 57.7748 203.887 51.1675 209.55C44.5602 215.213 45.5041 218.364 45.5041 218.364" stroke="white" stroke-width="0.5" stroke-linecap="round" stroke-linejoin="round"/>
<path d="M102.763 117.048C102.191 117.856 101.662 118.695 101.18 119.56" stroke="white" stroke-width="0.5" stroke-linecap="round" stroke-linejoin="round"/>
<path d="M139.686 199.125L141.282 211.618C141.282 211.618 149.611 219.947 155.732 225.096C161.853 230.246 177.539 241.143 177.539 241.143L169.585 243.405C169.585 243.405 143.586 227.997 138.45 226.748C133.314 225.499 129.469 218.087 127.873 215.838C126.277 213.589 135.508 196.877 139.686 199.125Z" fill="white" stroke="#263238" stroke-linecap="round" stroke-linejoin="round"/>
<path d="M155.565 402.383C155.565 402.383 163.422 409.018 166.67 411.239C169.918 413.46 173.708 414.46 173.111 415.667C172.514 416.875 170.89 418.083 163.242 417.055C155.593 416.028 153.386 413.432 151.97 413.03C150.554 412.627 147.14 413.641 144.53 412.03C141.921 410.42 146.057 400.829 146.057 400.829C147.203 402.169 148.787 403.06 150.527 403.344C152.267 403.629 154.052 403.288 155.565 402.383Z" fill="white" stroke="#263238" stroke-linecap="round" stroke-linejoin="round"/>
<path d="M173.083 415.667C173.089 415.603 173.089 415.537 173.083 415.473C168.667 415.879 164.215 415.46 159.952 414.237C155.01 413.071 153.553 410.448 148.847 410.448C147 410.465 145.165 410.164 143.42 409.56C143.369 410.023 143.433 410.491 143.604 410.924C143.776 411.357 144.051 411.742 144.405 412.044C147.015 413.654 150.443 412.641 151.845 413.044C153.247 413.446 155.468 416.07 163.117 417.069C170.765 418.069 172.472 416.875 173.083 415.667Z" fill="white" stroke="#263238" stroke-linecap="round" stroke-linejoin="round"/>
<path d="M114.437 134.108C114.437 134.108 115.95 144.296 114.006 148.405C112.063 152.514 105.983 152.958 100.792 153.832C95.6002 154.707 83.6766 159.246 84.9675 170.947C86.2584 182.649 101.222 207.995 101.222 215.144C101.222 222.293 96.6691 225.971 91.6858 239.838C86.7026 253.705 87.355 279.496 88.9097 296.181C90.0491 307.192 92.2242 318.072 95.4059 328.676C95.4059 328.676 82.9131 348.831 77.3608 357.492C71.8084 366.154 52.3752 403.868 52.3752 403.868C52.3752 403.868 52.3752 405.159 55.4013 406.034C57.5302 406.552 59.7328 406.697 61.9114 406.464C61.9114 406.464 99.1676 361.615 106.108 354.036C113.048 346.457 119.545 333.215 120.405 327.163C121.266 321.111 120.197 284.049 120.197 284.049C120.197 284.049 127.984 302.677 134.078 312.213C137.774 318.049 141.165 324.072 144.239 330.258C143.385 338.101 143.385 346.013 144.239 353.856C145.752 364.683 144.475 399.468 145.988 402.286C147.501 405.104 153.372 403.924 154.677 402.633C155.982 401.342 156.593 392.916 156.593 392.916C156.593 392.916 159.188 366.543 160.757 354.133C162.326 341.724 164.921 331.16 164.019 328.343C163.117 325.525 157.731 295.403 153.608 281.148C149.486 266.892 136.951 240.199 134.175 233.273C131.399 226.346 129.83 220.044 130.275 217.879C130.719 215.713 139.158 202.721 141.379 199.251C142.645 196.898 143.344 194.282 143.418 191.612C143.493 188.941 142.942 186.29 141.81 183.871C139.214 178.235 141.81 170.642 141.379 166.103C140.949 161.564 134.231 159.593 130.76 157.872C127.29 156.15 125.985 152.236 125.985 148.988C126.197 146.252 126.859 143.569 127.943 141.048C127.943 141.048 117.254 134.108 114.437 134.108Z" fill="white" stroke="#263238" stroke-linecap="round" stroke-linejoin="round"/>
<path d="M140.699 180.456C139.558 177.555 138.607 174.583 137.854 171.558" stroke="#263238" stroke-linecap="round" stroke-linejoin="round"/>
<path d="M112.562 204.581C112.562 204.581 116.477 205.442 124.32 201.527" stroke="#263238" stroke-linecap="round" stroke-linejoin="round"/>
<path d="M153.65 281.009C149.722 267.35 138.076 242.406 134.592 234.175C117.935 240.421 102.36 235.091 95.045 231.648C93.9901 233.953 92.8518 236.618 91.6858 239.838C86.7026 253.719 87.355 279.496 88.9097 296.181C90.0491 307.192 92.2242 318.072 95.4059 328.676C95.4059 328.676 82.9131 348.831 77.3608 357.492C71.8084 366.154 52.3752 403.868 52.3752 403.868C52.3752 403.868 52.3752 405.159 55.4013 406.034C57.5302 406.552 59.7328 406.697 61.9114 406.464C61.9114 406.464 99.1676 361.615 106.108 354.036C113.048 346.457 119.545 333.215 120.405 327.163C121.266 321.111 120.197 284.049 120.197 284.049C120.197 284.049 127.984 302.677 134.078 312.213C137.774 318.049 141.165 324.072 144.239 330.258C143.385 338.101 143.385 346.013 144.239 353.855C145.752 364.683 144.475 399.468 145.988 402.286C147.501 405.104 153.372 403.924 154.677 402.633C155.982 401.342 156.593 392.916 156.593 392.916C156.593 392.916 159.188 366.543 160.757 354.133C162.326 341.724 164.921 331.16 164.019 328.342C163.117 325.525 157.773 295.306 153.65 281.009Z" fill="#263238" stroke="#263238" stroke-linecap="round" stroke-linejoin="round"/>
<path d="M238.517 267.253V264.421H240.891V242.184H238.517H215.086H212.713V264.421H215.086V267.253H212.699V272.417H221.846V270.681H231.757V272.417H240.905V267.253H238.517Z" fill="#035A04" stroke="#263238" stroke-linecap="round" stroke-linejoin="round"/>
<path d="M87.0774 235.535H250.538C251.194 235.535 251.822 235.796 252.285 236.259C252.749 236.722 253.009 237.351 253.009 238.006V242.975C253.009 243.631 252.749 244.259 252.285 244.723C251.822 245.186 251.194 245.446 250.538 245.446H87.0774V235.521V235.535Z" fill="#035A04" stroke="#263238" stroke-linecap="round" stroke-linejoin="round"/>
<path d="M204.398 234.05H194.446C193.687 234.05 193.072 234.665 193.072 235.424V245.571C193.072 246.33 193.687 246.945 194.446 246.945H204.398C205.157 246.945 205.773 246.33 205.773 245.571V235.424C205.773 234.665 205.157 234.05 204.398 234.05Z" fill="#035A04" stroke="#263238" stroke-linecap="round" stroke-linejoin="round"/>
<path d="M92.1914 244.672C94.4944 230.608 84.9603 217.339 70.8961 215.036C56.832 212.733 43.5638 222.267 41.2607 236.332C38.9576 250.396 48.4918 263.664 62.5559 265.967C76.62 268.27 89.8883 258.736 92.1914 244.672Z" fill="#035A04" stroke="#263238" stroke-linecap="round" stroke-linejoin="round"/>
<path d="M72.0305 240.435C73.5265 239.718 74.796 238.603 75.6996 237.213C76.6032 235.822 77.106 234.209 77.1525 232.55C77.1525 227.484 72.4885 223.375 66.728 223.375C60.9674 223.375 56.3035 227.54 56.3035 232.55C56.3469 234.209 56.8484 235.824 57.7523 237.215C58.6563 238.607 59.9276 239.721 61.4255 240.435C59.9284 241.154 58.6584 242.271 57.7548 243.664C56.8512 245.058 56.349 246.673 56.3035 248.333C56.3035 253.4 60.9674 257.508 66.728 257.508C72.4885 257.508 77.1525 253.344 77.1525 248.333C77.1039 246.674 76.6004 245.06 75.6972 243.667C74.794 242.274 73.5256 241.156 72.0305 240.435Z" fill="white" stroke="#263238" stroke-linecap="round" stroke-linejoin="round"/>
<path d="M172.445 245.668C172.445 245.668 180.523 249.083 183.022 249.083C185.52 249.083 188.408 246.571 189.837 243.531C191.267 240.491 191.225 239.047 190.379 239.769L188.588 241.157C188.588 241.157 189.976 238.117 188.408 238.478C187.321 238.84 186.42 239.612 185.895 240.63C185.895 240.63 185.715 237.937 184.285 239.241C183.339 240.098 182.496 241.063 181.773 242.115C181.773 242.115 181.592 238.714 180.69 239.602C179.788 240.491 176.401 245.335 176.401 245.335L172.445 245.668Z" fill="white" stroke="#263238" stroke-linecap="round" stroke-linejoin="round"/>
<path d="M181.773 242.087C181.773 242.087 181.231 246.39 178.552 247.112L181.773 242.087Z" fill="white"/>
<path d="M181.773 242.087C181.773 242.087 181.231 246.39 178.552 247.112" stroke="#263238" stroke-linecap="round" stroke-linejoin="round"/>
<path d="M185.895 240.657C185.895 240.657 184.507 247.459 182.314 248.542L185.895 240.657Z" fill="white"/>
<path d="M185.895 240.657C185.895 240.657 184.507 247.459 182.314 248.542" stroke="#263238" stroke-linecap="round" stroke-linejoin="round"/>
<path d="M188.588 241.185C187.872 243.667 186.91 246.071 185.715 248.361L188.588 241.185Z" fill="white"/>
<path d="M188.588 241.185C187.872 243.667 186.91 246.071 185.715 248.361" stroke="#263238" stroke-linecap="round" stroke-linejoin="round"/>
<path d="M130.247 157.455C128.849 156.511 127.716 155.224 126.958 153.717C126.2 152.211 125.841 150.534 125.916 148.849C126.165 146.156 126.849 143.522 127.942 141.048C127.942 141.048 117.324 134.108 114.506 134.108C114.506 134.108 116.019 144.296 114.076 148.405C113.439 149.683 112.4 150.717 111.119 151.348C113.685 158.257 117.163 164.793 121.46 170.781C125.361 175.681 127.262 165.353 130.247 157.455Z" fill="white" stroke="#263238" stroke-linecap="round" stroke-linejoin="round"/>
<path d="M97.4739 155.234C94.825 155.687 92.3176 156.748 90.1495 158.336C87.9815 159.924 86.2121 161.993 84.9811 164.382C80.7058 172.627 62.0221 210.05 63.6184 212.285C72.6965 225.055 105.719 234.244 109.078 237.603C112.436 241.116 116.122 244.3 120.086 247.112C123.445 249.249 130.149 248.333 131.371 247.723C132.592 247.112 133.509 244.363 131.371 244.363C130.554 244.374 129.759 244.104 129.117 243.599C128.475 243.094 128.026 242.384 127.845 241.587C127.54 240.366 131.204 242.809 133.037 241.893C134.869 240.976 128.942 237.631 127.109 236.104C125.277 234.577 123.75 232.454 121.307 232.454C118.864 232.454 114.27 232.454 114.27 232.454C114.27 232.454 103.026 224.306 96.2246 218.24C90.9321 213.464 85.1593 209.25 78.9984 205.664L99.6115 171.753" fill="white"/>
<path d="M97.4738 155.234C94.825 155.687 92.3176 156.748 90.1495 158.336C87.9815 159.924 86.2121 161.993 84.9811 164.382C80.7058 172.627 62.0221 210.05 63.6184 212.285C72.6965 225.055 105.719 234.244 109.078 237.603C112.436 241.116 116.122 244.3 120.086 247.112C123.445 249.249 130.149 248.333 131.371 247.723C132.592 247.112 133.509 244.363 131.371 244.363C130.554 244.374 129.759 244.104 129.117 243.599C128.475 243.094 128.026 242.384 127.845 241.587C127.54 240.366 131.204 242.809 133.037 241.893C134.869 240.976 128.942 237.631 127.109 236.104C125.277 234.577 123.75 232.454 121.307 232.454C118.864 232.454 114.27 232.454 114.27 232.454C114.27 232.454 103.026 224.306 96.2246 218.24C90.9321 213.464 85.1593 209.25 78.9984 205.664L99.6115 171.753" stroke="#263238" stroke-linecap="round" stroke-linejoin="round"/>
<path d="M127.096 236.118C125.263 234.591 123.736 232.467 121.293 232.467C118.85 232.467 114.256 232.467 114.256 232.467C114.256 232.467 103.012 224.319 96.2107 218.253C90.9183 213.478 85.1455 209.263 78.9846 205.677L87.2298 192.102C83.0145 189.55 78.1927 188.175 73.2657 188.118C67.7133 199.695 62.7301 211.132 63.5491 212.34C72.6272 225.11 105.65 234.3 109.009 237.659C112.367 241.171 116.053 244.355 120.016 247.167C123.376 249.305 130.08 248.389 131.302 247.778C132.523 247.167 133.439 244.419 131.302 244.419C130.485 244.429 129.689 244.16 129.047 243.654C128.406 243.149 127.957 242.439 127.776 241.643C127.47 240.421 131.135 242.864 132.967 241.948C134.8 241.032 128.928 237.659 127.096 236.118Z" fill="white" stroke="#263238" stroke-linecap="round" stroke-linejoin="round"/>
<path d="M138.27 119.158C137.187 116.993 137.187 115.257 137.617 112.218C138.048 109.178 135.452 101.807 135.452 101.807C132.801 106.388 125.139 109.108 121.752 110.135C118.018 111.274 123.473 113.855 122.89 117.312C122.307 120.768 114.853 122.767 114.853 122.767C114.853 122.767 112.674 118.283 109.647 118.283C106.621 118.283 104.47 125.224 106.191 128.902C106.64 129.921 107.421 130.758 108.407 131.275C109.393 131.792 110.525 131.959 111.619 131.748C111.619 131.748 111.41 138.258 115.519 140.201C119.903 142.293 124.477 143.962 129.178 145.185C131.774 145.615 134.369 144.324 135.452 140.423C136.299 136.493 136.878 132.509 137.187 128.5C139.005 127.31 140.677 125.913 142.17 124.336C143.211 122.836 139.353 121.323 138.27 119.158Z" fill="white" stroke="#263238" stroke-linecap="round" stroke-linejoin="round"/>
<path d="M134.05 119.255C134.05 120.449 133.661 121.407 133.189 121.407C132.718 121.407 132.329 120.449 132.329 119.255C132.329 118.061 132.718 117.104 133.189 117.104C133.661 117.104 134.05 118.061 134.05 119.255Z" fill="#263238"/>
<path d="M130.316 115.674C130.316 115.674 132.62 113.078 134.342 113.661" stroke="#263238" stroke-linecap="round" stroke-linejoin="round"/>
<path d="M134.342 133.469C133.301 133.783 132.197 133.82 131.138 133.576C130.079 133.333 129.102 132.818 128.303 132.081" stroke="#263238" stroke-linecap="round" stroke-linejoin="round"/>
<path d="M52.4722 403.869C52.4722 403.869 47.2946 414.252 47.489 415.667C47.6833 417.083 57.9551 424.523 62.7579 427.133C67.5607 429.743 76.2501 430.159 75.6394 426.536C75.0286 422.913 66.7834 420.498 64.7706 415.057C63.6988 412.242 62.7722 409.374 61.9945 406.464C58.6391 406.514 55.3381 405.614 52.4722 403.869Z" fill="white" stroke="#263238" stroke-linecap="round" stroke-linejoin="round"/>
<path d="M75.6674 426.591C71.9717 427.087 68.211 426.553 64.7987 425.05C57.3446 421.816 50.1266 415.209 48.1416 413.335C47.7891 414.084 47.5639 414.886 47.4753 415.709C47.6836 417.097 57.9415 424.565 62.7443 427.174C67.5471 429.784 76.1671 430.145 75.6674 426.591Z" fill="white" stroke="#263238" stroke-linecap="round" stroke-linejoin="round"/>
</svg>
