<svg width="879" height="681" viewBox="0 0 879 681" fill="none" xmlns="http://www.w3.org/2000/svg">
<path d="M729.224 289.504C729.224 289.504 772.623 293.802 794.606 320.708C794.606 320.708 817.857 289.542 859.589 290.186C869.788 277.882 876.281 262.935 878.314 247.084C880.347 231.233 877.836 215.131 871.072 200.652C864.309 186.173 853.571 173.913 840.11 165.3C826.649 156.687 811.019 152.075 795.038 152.001C779.057 151.926 763.385 156.393 749.844 164.881C736.304 173.369 725.453 185.528 718.555 199.943C711.657 214.359 708.996 230.437 710.882 246.306C712.767 262.175 719.122 277.182 729.206 289.58L729.224 289.504Z" fill="#035A04"/>
<path opacity="0.5" d="M729.224 289.504C729.224 289.504 772.623 293.802 794.606 320.708C794.606 320.708 817.857 289.542 859.589 290.186C869.788 277.882 876.281 262.935 878.314 247.084C880.347 231.233 877.836 215.131 871.072 200.652C864.309 186.173 853.571 173.913 840.11 165.3C826.649 156.687 811.019 152.075 795.038 152.001C779.057 151.926 763.385 156.393 749.844 164.881C736.304 173.369 725.453 185.528 718.555 199.943C711.657 214.359 708.996 230.437 710.882 246.306C712.767 262.175 719.122 277.182 729.206 289.58L729.224 289.504Z" fill="white"/>
<path d="M793.148 157.947L791.69 439.201H799.018L793.148 157.947Z" fill="#B8B8B8"/>
<path d="M795.363 312.509C795.363 312.509 810 286.134 836.376 278.067C836.376 278.067 808.542 284.676 794.72 307.378L795.363 312.509Z" fill="#B8B8B8"/>
<path d="M795.363 237.794C795.363 237.794 810 211.418 836.376 203.352C836.376 203.352 808.542 209.941 794.72 232.663L795.363 237.794Z" fill="#B8B8B8"/>
<path d="M795.363 275.114C795.363 275.114 810 248.738 836.376 240.672C836.376 240.672 808.542 247.28 794.72 269.982L795.363 275.114Z" fill="#B8B8B8"/>
<path d="M793.186 256.823C793.186 256.823 779.042 230.466 753.594 222.4C753.594 222.4 780.462 228.989 793.887 251.711L793.186 256.823Z" fill="#B8B8B8"/>
<path d="M793.186 293.461C793.186 293.461 779.042 267.085 753.594 259.038C753.594 259.038 780.462 265.627 793.887 288.33L793.186 293.461Z" fill="#B8B8B8"/>
<path d="M18.932 289.504C18.932 289.504 62.3301 293.802 84.3131 320.708C84.3131 320.708 107.565 289.542 149.297 290.186C159.495 277.882 165.989 262.935 168.022 247.084C170.055 231.233 167.543 215.131 160.78 200.652C154.016 186.173 143.279 173.913 129.818 165.3C116.357 156.687 100.726 152.075 84.7456 152.001C68.765 151.926 53.0921 156.393 39.5517 164.881C26.0113 173.369 15.1605 185.528 8.26265 199.943C1.3648 214.359 -1.29628 230.437 0.589258 246.306C2.47479 262.175 8.82936 277.182 18.9131 289.58L18.932 289.504Z" fill="#035A04"/>
<path opacity="0.5" d="M18.932 289.504C18.932 289.504 62.3301 293.802 84.3131 320.708C84.3131 320.708 107.565 289.542 149.297 290.186C159.495 277.882 165.989 262.935 168.022 247.084C170.055 231.233 167.543 215.131 160.78 200.652C154.016 186.173 143.279 173.913 129.818 165.3C116.357 156.687 100.726 152.075 84.7456 152.001C68.765 151.926 53.0921 156.393 39.5517 164.881C26.0113 173.369 15.1605 185.528 8.26265 199.943C1.3648 214.359 -1.29628 230.437 0.589258 246.306C2.47479 262.175 8.82936 277.182 18.9131 289.58L18.932 289.504Z" fill="white"/>
<path d="M82.8934 157.947L81.4165 439.201H88.7442L82.8934 157.947Z" fill="#B8B8B8"/>
<path d="M85.0891 312.509C85.0891 312.509 99.7255 286.134 126.101 278.067C126.101 278.067 98.2676 284.676 84.4453 307.378L85.0891 312.509Z" fill="#B8B8B8"/>
<path d="M85.0891 237.794C85.0891 237.794 99.7255 211.418 126.101 203.352C126.101 203.352 98.2676 209.941 84.4453 232.663L85.0891 237.794Z" fill="#B8B8B8"/>
<path d="M85.0891 275.114C85.0891 275.114 99.7255 248.738 126.101 240.672C126.101 240.672 98.2676 247.28 84.4453 269.982L85.0891 275.114Z" fill="#B8B8B8"/>
<path d="M82.912 256.823C82.912 256.823 68.7679 230.466 43.3198 222.4C43.3198 222.4 70.188 228.989 83.6126 251.711L82.912 256.823Z" fill="#B8B8B8"/>
<path d="M82.912 293.461C82.912 293.461 68.7679 267.085 43.3198 259.038C43.3198 259.038 70.188 265.627 83.6126 288.33L82.912 293.461Z" fill="#B8B8B8"/>
<path d="M552.887 316.77C552.887 316.77 588.409 320.273 606.396 342.293C606.396 342.293 625.426 316.789 659.584 317.3C667.927 307.228 673.237 294.994 674.897 282.022C676.557 269.05 674.498 255.873 668.96 244.025C663.422 232.177 654.632 222.147 643.615 215.1C632.597 208.054 619.805 204.283 606.727 204.225C593.648 204.167 580.823 207.825 569.743 214.773C558.663 221.721 549.785 231.673 544.142 243.471C538.499 255.269 536.323 268.428 537.868 281.414C539.413 294.401 544.615 306.681 552.868 316.826L552.887 316.77Z" fill="#035A04"/>
<path opacity="0.5" d="M552.887 316.77C552.887 316.77 588.409 320.273 606.396 342.293C606.396 342.293 625.426 316.789 659.584 317.3C667.927 307.228 673.237 294.994 674.897 282.022C676.557 269.05 674.498 255.873 668.96 244.025C663.422 232.177 654.632 222.147 643.615 215.1C632.597 208.054 619.805 204.283 606.727 204.225C593.648 204.167 580.823 207.825 569.743 214.773C558.663 221.721 549.785 231.673 544.142 243.471C538.499 255.269 536.323 268.428 537.868 281.414C539.413 294.401 544.615 306.681 552.868 316.826L552.887 316.77Z" fill="white"/>
<path d="M605.222 208.994L604.029 439.201H610.032L605.222 208.994Z" fill="#B8B8B8"/>
<path d="M607.021 335.515C607.021 335.515 619.026 313.93 640.592 307.322C640.592 307.322 617.871 312.718 606.51 331.312L607.021 335.515Z" fill="#B8B8B8"/>
<path d="M607.021 274.356C607.021 274.356 619.026 252.771 640.592 246.182C640.592 246.182 617.871 251.578 606.51 270.153L607.021 274.356Z" fill="#B8B8B8"/>
<path d="M607.021 304.936C607.021 304.936 619.026 283.35 640.592 276.742C640.592 276.742 617.871 282.138 606.51 300.732L607.021 304.936Z" fill="#B8B8B8"/>
<path d="M605.241 289.939C605.241 289.939 593.672 268.354 572.844 261.765C572.844 261.765 594.827 267.161 605.828 285.736L605.241 289.939Z" fill="#B8B8B8"/>
<path d="M605.241 319.913C605.241 319.913 593.672 298.328 572.844 291.738C572.844 291.738 594.827 297.135 605.828 315.728L605.241 319.913Z" fill="#B8B8B8"/>
<path d="M209.206 316.77C209.206 316.77 244.727 320.273 262.715 342.293C262.715 342.293 281.649 316.789 315.902 317.3C324.245 307.228 329.556 294.994 331.216 282.022C332.876 269.05 330.817 255.873 325.279 244.025C319.74 232.177 310.951 222.147 299.933 215.1C288.915 208.054 276.123 204.283 263.045 204.225C249.967 204.167 237.141 207.825 226.062 214.773C214.982 221.721 206.104 231.673 200.46 243.471C194.817 255.269 192.642 268.428 194.187 281.414C195.731 294.401 200.933 306.681 209.187 316.826L209.206 316.77Z" fill="#035A04"/>
<path opacity="0.5" d="M209.206 316.77C209.206 316.77 244.727 320.273 262.715 342.293C262.715 342.293 281.649 316.789 315.902 317.3C324.245 307.228 329.556 294.994 331.216 282.022C332.876 269.05 330.817 255.873 325.279 244.025C319.74 232.177 310.951 222.147 299.933 215.1C288.915 208.054 276.123 204.283 263.045 204.225C249.967 204.167 237.141 207.825 226.062 214.773C214.982 221.721 206.104 231.673 200.46 243.471C194.817 255.269 192.642 268.428 194.187 281.414C195.731 294.401 200.933 306.681 209.187 316.826L209.206 316.77Z" fill="white"/>
<path d="M261.541 208.994L260.348 439.201H266.35L261.541 208.994Z" fill="#B8B8B8"/>
<path d="M263.434 335.515C263.434 335.515 275.439 313.93 297.005 307.322C297.005 307.322 274.284 312.718 262.923 331.312L263.434 335.515Z" fill="#B8B8B8"/>
<path d="M263.434 274.356C263.434 274.356 275.439 252.771 297.005 246.182C297.005 246.182 274.284 251.578 262.923 270.153L263.434 274.356Z" fill="#B8B8B8"/>
<path d="M263.434 304.936C263.434 304.936 275.439 283.35 297.005 276.742C297.005 276.742 274.284 282.138 262.923 300.732L263.434 304.936Z" fill="#B8B8B8"/>
<path d="M261.541 289.939C261.541 289.939 249.991 268.354 229.163 261.859C229.163 261.859 251.146 267.256 262.147 285.831L261.541 289.939Z" fill="#B8B8B8"/>
<path d="M261.541 319.913C261.541 319.913 249.972 298.328 229.144 291.738C229.144 291.738 251.127 297.135 262.128 315.728L261.541 319.913Z" fill="#B8B8B8"/>
<path d="M31.9966 440.204H849.099" stroke="#263238" stroke-width="1.04742" stroke-miterlimit="10"/>
<path d="M323.406 85.2377C323.406 70.6013 331.132 62.2322 345.238 62.2322C359.344 62.2322 367.088 70.6013 367.088 85.2377V132.839C367.088 147.476 359.363 155.845 345.238 155.845C331.113 155.845 323.406 147.476 323.406 132.839V85.2377ZM337.797 133.748C337.797 140.281 340.675 142.761 345.238 142.761C349.801 142.761 352.698 140.281 352.698 133.748V84.3288C352.698 77.7964 349.82 75.316 345.238 75.316C340.656 75.316 337.797 77.7964 337.797 84.3288V133.748Z" fill="#263238"/>
<path d="M377.938 85.2377C377.938 70.6013 385.644 62.2322 399.77 62.2322C413.895 62.2322 421.601 70.6013 421.601 85.2377V132.839C421.601 147.476 413.876 155.845 399.77 155.845C385.663 155.845 377.938 147.476 377.938 132.839V85.2377ZM392.309 133.748C392.309 140.281 395.187 142.761 399.77 142.761C404.352 142.761 407.211 140.281 407.211 133.748V84.3288C407.211 77.7964 404.333 75.316 399.77 75.316C395.206 75.316 392.309 77.7964 392.309 84.3288V133.748Z" fill="#263238"/>
<path d="M476.246 85.9004V97.7913C476.246 112.447 469.184 120.513 454.812 120.513H448.015V154.898H433.625V63.2925H454.812C469.184 63.2925 476.246 71.2639 476.246 85.9004ZM448.015 76.4331V107.41H454.812C459.376 107.41 461.856 105.327 461.856 98.7948V85.0672C461.856 78.5159 459.376 76.4331 454.812 76.4331H448.015Z" fill="#263238"/>
<path d="M505.671 62.2322C519.645 62.2322 526.84 70.6013 526.84 85.2377V88.1157H513.245V84.3288C513.245 77.7964 510.632 75.316 506.05 75.316C501.467 75.316 498.854 77.7964 498.854 84.3288C498.854 103.15 526.972 106.691 526.972 132.839C526.972 147.476 519.645 155.845 505.538 155.845C491.432 155.845 484.085 147.476 484.085 132.839V127.159H497.68V133.691C497.68 140.224 500.559 142.591 505.141 142.591C509.723 142.591 512.582 140.224 512.582 133.691C512.582 114.87 484.483 111.33 484.483 85.1809C484.483 70.6202 491.678 62.2322 505.671 62.2322Z" fill="#263238"/>
<path d="M539.79 134.524L537.897 101.465V63.2925H552.287V101.465L550.394 134.524H539.79ZM552.079 140.943V154.803H538.295V140.943H552.079Z" fill="#263238"/>
<path d="M292.373 637.086C299.113 637.086 301.991 641.081 301.991 647.576V652.726C301.991 659.523 298.81 663.083 292.013 663.083H287.772V679.992H283V637.086H292.373ZM292.013 658.785C295.554 658.785 297.277 657.138 297.277 653.105V647.424C297.277 643.505 295.857 641.536 292.373 641.536H287.772V658.88L292.013 658.785Z" fill="#263238"/>
<path d="M311.194 671.339L309.527 679.992H305.116L313.333 637.086H320.263L328.481 679.992H323.691L322.043 671.339H311.194ZM311.8 667.249H321.362L316.514 642.444L311.8 667.249Z" fill="#263238"/>
<path d="M352.376 647.443V651.116H347.832V647.197C347.832 643.41 346.298 641.024 342.814 641.024C339.33 641.024 337.797 643.334 337.797 647.197V669.919C337.797 673.705 339.387 676.11 342.814 676.11C346.241 676.11 347.832 673.781 347.832 669.919V661.379H343.42V657.081H352.376V669.71C352.376 676.205 349.309 680.484 342.701 680.484C336.093 680.484 333.063 676.205 333.063 669.71V647.443C333.063 640.949 336.13 636.669 342.701 636.669C349.271 636.669 352.376 640.949 352.376 647.443Z" fill="#263238"/>
<path d="M373.394 656.096V660.375H362.923V675.637H375.779V679.992H358.132V637.086H375.779V641.441H362.923V656.096H373.394Z" fill="#263238"/>
<path d="M396.38 679.992H392.101V637.086H398.179L408.101 668.101V637.086H412.342V679.992H407.362L396.399 645.304L396.38 679.992Z" fill="#263238"/>
<path d="M418.079 647.443C418.079 640.892 421.317 636.669 427.887 636.669C434.458 636.669 437.752 640.892 437.752 647.443V669.634C437.752 676.129 434.495 680.408 427.887 680.408C421.279 680.408 418.079 676.129 418.079 669.634V647.443ZM422.794 669.881C422.794 673.8 424.46 676.072 427.887 676.072C431.314 676.072 432.962 673.8 432.962 669.881V647.159C432.962 643.372 431.371 640.987 427.887 640.987C424.403 640.987 422.794 643.296 422.794 647.159V669.881Z" fill="#263238"/>
<path d="M449.757 679.992V641.441H441.861V637.086H462.443V641.441H454.547V679.992H449.757Z" fill="#263238"/>
<path d="M492.359 657.062V661.379H482.495V679.954H477.704V637.086H494.745V641.441H482.495V657.062H492.359Z" fill="#263238"/>
<path d="M499.403 647.443C499.403 640.892 502.66 636.669 509.211 636.669C515.763 636.669 519.076 640.892 519.076 647.443V669.634C519.076 676.129 515.839 680.408 509.211 680.408C502.584 680.408 499.403 676.129 499.403 669.634V647.443ZM504.137 669.881C504.137 673.8 505.784 676.072 509.211 676.072C512.639 676.072 514.305 673.8 514.305 669.881V647.159C514.305 643.372 512.714 640.987 509.211 640.987C505.709 640.987 504.137 643.296 504.137 647.159V669.881Z" fill="#263238"/>
<path d="M529.377 669.881C529.377 673.668 530.911 676.072 534.395 676.072C537.878 676.072 539.374 673.743 539.374 669.881V637.086H543.843V669.634C543.843 676.129 540.832 680.484 534.224 680.484C527.616 680.484 524.662 676.129 524.662 669.634V637.086H529.377V669.881Z" fill="#263238"/>
<path d="M554.011 679.992H549.656V637.086H555.715L565.637 668.101V637.086H569.878V679.992H564.993L554.011 645.304V679.992Z" fill="#263238"/>
<path d="M586.124 637.086C592.808 637.086 595.875 641.138 595.875 647.746V669.388C595.875 675.94 592.808 679.992 586.124 679.992H576.164V637.086H586.124ZM586.124 675.637C589.551 675.637 591.217 673.497 591.217 669.578V647.5C591.217 643.58 589.551 641.441 586.067 641.441H580.917V675.637H586.124Z" fill="#263238"/>
<path opacity="0.3" d="M248.302 531.582C248.302 537.263 213.405 541.788 170.329 541.788C127.253 541.788 92.3564 537.225 92.3564 531.582C92.3564 525.94 127.272 521.376 170.329 521.376C213.386 521.376 248.302 525.959 248.302 531.582Z" fill="black"/>
<path opacity="0.3" d="M411.536 531.582C411.536 537.263 376.621 541.788 333.563 541.788C290.506 541.788 255.591 537.225 255.591 531.582C255.591 525.94 290.506 521.376 333.563 521.376C376.621 521.376 411.536 525.959 411.536 531.582Z" fill="black"/>
<path opacity="0.3" d="M627.769 531.582C627.769 537.263 592.873 541.788 549.815 541.788C506.758 541.788 471.843 537.225 471.843 531.582C471.843 525.94 506.739 521.376 549.815 521.376C592.892 521.376 627.769 525.959 627.769 531.582Z" fill="black"/>
<path opacity="0.3" d="M808.405 531.582C808.405 537.263 773.489 541.788 730.432 541.788C687.375 541.788 652.384 537.225 652.384 531.582C652.384 525.94 687.299 521.376 730.356 521.376C773.414 521.376 808.405 525.959 808.405 531.582Z" fill="black"/>
<path d="M558.241 233.022C558.241 233.022 555.041 246.276 555.041 248.51C555.039 249.892 554.887 251.27 554.587 252.619C554.587 252.619 547.752 260.818 548.66 263.09C549.765 264.857 551.347 266.275 553.224 267.18C553.224 267.18 556.859 280.434 560.513 281.305C564.267 282.006 568.062 282.462 571.874 282.668L573.237 293.594L591.453 290.867L586.908 274.47L588.802 260.345C588.802 260.345 591.983 254.437 588.802 244.875C585.621 235.313 578.785 234.859 574.222 234.859C568.867 234.519 563.533 233.906 558.241 233.022Z" fill="white" stroke="#263238" stroke-width="1.04742" stroke-linecap="round" stroke-linejoin="round"/>
<path d="M566.44 226.206C566.44 226.206 550.497 225.732 550.951 229.841C551.406 233.95 567.803 239.308 567.803 239.308C567.803 239.308 562.331 242.944 565.058 246.598C567.784 250.252 574.165 253.434 574.165 253.434C574.165 253.434 572.272 261.178 575.093 261.632C577.914 262.087 579.637 257.978 580.092 256.615C580.546 255.251 585.564 255.706 586.927 259.341C587.698 261.23 588.158 263.232 588.29 265.268C588.29 265.268 593.763 248.87 594.671 241.58C595.58 234.291 575.093 226.206 566.44 226.206Z" fill="#263238" stroke="#263238" stroke-width="1.04742" stroke-linecap="round" stroke-linejoin="round"/>
<path d="M576.532 261.859C576.532 261.859 582.042 249.741 585.337 255.705C588.631 261.67 587.23 267.88 583.992 268.543C580.755 269.206 578.047 269.85 578.047 269.85" fill="white"/>
<path d="M576.532 261.859C576.532 261.859 582.042 249.741 585.337 255.705C588.631 261.67 587.23 267.88 583.992 268.543C580.755 269.206 578.047 269.85 578.047 269.85" stroke="#263238" stroke-width="1.04742" stroke-linecap="round" stroke-linejoin="round"/>
<path d="M554.132 388.323C553.243 389.365 538.644 420.664 536.826 431.135C535.009 441.605 523.174 504.014 522.701 506.74C522.228 509.467 497.215 514.939 495.378 515.393C493.542 515.848 497.272 520.866 502.668 522.229C508.065 523.592 523.629 529.973 527.283 526.319C530.938 522.664 535.936 502.177 537.3 499.905C538.663 497.633 564.3 437.231 564.3 437.231C564.3 437.231 577.441 408.243 580.168 405.497C582.894 402.752 576.93 390.615 574.639 386.96C572.348 383.306 560.513 381.034 554.132 388.323Z" fill="#263238" stroke="#263238" stroke-width="1.04742" stroke-linecap="round" stroke-linejoin="round"/>
<path d="M551.406 388.721C551.406 388.721 557.786 419.244 560.967 430.169C563.945 439.345 568.424 447.964 574.222 455.674C577.876 460.691 595.637 504.904 595.637 504.904L598.363 511.739C598.363 511.739 597.454 514.466 592.456 518.101C587.457 521.737 573.313 527.663 576.967 529.045C580.622 530.428 595.182 530.409 602.018 529.954C607.902 529.537 613.419 526.937 617.487 522.664C620.233 519.464 612.943 510.357 612.943 508.539C612.943 506.721 597 451.167 596.091 448.422C595.182 445.676 590.619 426.117 590.619 426.117V403.869C590.619 403.869 592.91 399.779 592.91 390.615C592.91 381.45 586.075 379.67 586.075 379.67L548.717 383.325L551.406 388.721Z" fill="#263238" stroke="#263238" stroke-width="1.04742" stroke-linecap="round" stroke-linejoin="round"/>
<path d="M548.244 386.051C548.244 386.051 549.171 393.795 551.898 394.25C554.625 394.704 582.856 402.448 595.164 393.341C595.164 393.341 597.436 386.506 596.072 384.688C594.709 382.87 591.509 383.779 575.131 383.779C558.752 383.779 548.244 383.779 548.244 386.051Z" fill="#035A04" stroke="#263238" stroke-width="1.04742" stroke-linecap="round" stroke-linejoin="round"/>
<path d="M590.108 284.032C590.108 284.032 573.256 286.304 565.966 293.499C558.676 300.694 552.314 314.005 549.133 326.294C545.952 338.582 543.661 383.684 548.206 385.957C552.75 388.229 591.017 390.52 597.436 387.85C603.854 385.18 596.981 363.708 596.981 355.51C596.981 347.311 604.271 319.534 602.908 304.064C601.544 288.595 590.108 284.032 590.108 284.032Z" fill="#035A04" stroke="#263238" stroke-width="1.04742" stroke-linecap="round" stroke-linejoin="round"/>
<path d="M529.309 331.368C529.101 312.623 521.451 296.623 511.284 289.712V285.925L483.26 286.209C467.488 286.379 454.858 307.037 455.18 332.22C455.502 357.403 468.435 377.796 484.226 377.663L512.249 377.379V373.592C522.095 366.264 529.404 350.113 529.309 331.368Z" fill="#263238" stroke="#263238" stroke-width="1.04742" stroke-linecap="round" stroke-linejoin="round"/>
<path d="M541.882 331.236C541.674 311.544 534.081 294.73 523.402 287.421V283.388L511.397 283.52C494.81 283.691 481.613 305.333 481.897 331.86C482.181 358.388 495.833 379.746 512.42 379.576L524.424 379.443V375.429C534.857 367.893 542.09 350.852 541.882 331.236Z" fill="white" stroke="#263238" stroke-width="1.04742" stroke-linecap="round" stroke-linejoin="round"/>
<path d="M553.924 331.103C554.208 357.612 540.992 379.273 524.424 379.443C507.857 379.614 494.129 358.255 493.902 331.747C493.675 305.238 506.834 283.577 523.402 283.388C539.97 283.199 553.603 304.576 553.924 331.103Z" fill="#737373" stroke="#263238" stroke-width="1.04742" stroke-linecap="round" stroke-linejoin="round"/>
<path d="M547.032 330.289C547.165 342.843 540.897 353.105 533.039 353.2C525.182 353.294 518.706 343.146 518.573 330.478C518.441 317.811 524.708 307.757 532.566 307.568C540.424 307.378 546.899 317.716 547.032 330.289Z" fill="#263238" stroke="#263238" stroke-width="1.04742" stroke-linecap="round" stroke-linejoin="round"/>
<path d="M770.157 424.697C771.72 413.026 772.385 401.252 772.145 389.479C765.992 392.319 730.092 393.36 726.797 393.436C723.502 393.512 687.602 392.319 681.449 389.479C681.178 401.249 681.811 413.023 683.342 424.697C685.823 440.053 707.635 501.533 708.127 504.506C708.766 507.373 709.595 510.194 710.608 512.951C710.608 512.951 698.206 521.869 692.753 525.334C687.299 528.799 691.276 530.295 696.729 530.295C702.182 530.295 713.581 528.799 717.046 528.799C720.113 528.799 725.453 526.129 726.702 525.486C727.952 526.129 733.291 528.799 736.34 528.799C739.824 528.799 751.223 530.295 756.676 530.295C762.129 530.295 766.143 528.799 760.652 525.334C755.161 521.869 742.797 512.951 742.797 512.951C743.81 510.194 744.639 507.373 745.277 504.506C745.864 501.477 767.677 439.996 770.157 424.697Z" fill="#263238" stroke="#263238" stroke-width="1.04742" stroke-linecap="round" stroke-linejoin="round"/>
<path d="M719.299 293.083C719.299 293.083 700.118 299.35 690.215 305.636C680.312 311.922 670.372 345.967 670.372 347.292C669.802 349.664 669.03 351.983 668.062 354.222C668.062 354.222 658.14 351.912 656.171 360.168C654.202 368.423 666.074 379.008 672.36 379.348C678.646 379.689 680.615 377.701 680.615 377.701C680.615 377.701 676.658 385.635 678.305 388.929C679.953 392.224 693.851 404.475 721.287 404.077C748.723 403.679 768.623 399.116 771.52 395.159C774.417 391.201 774.834 382.927 774.834 382.927C774.834 382.927 785.077 380.276 788.713 373.668C792.348 367.06 791.686 360.111 789.697 353.181C787.709 346.251 777.466 326.123 770.536 314.876C763.606 303.629 749.045 297.362 742.134 295.374C735.223 293.385 723.919 293.083 719.299 293.083Z" fill="#035A04" stroke="#263238" stroke-width="1.04742" stroke-linecap="round" stroke-linejoin="round"/>
<path d="M725.112 320.916C727.857 320.007 736.472 312.358 739.786 304.708C741.097 301.78 742.02 298.693 742.531 295.525L742.096 295.393C735.166 293.404 723.919 293.083 719.374 293.083C719.374 293.083 715.36 294.389 710.059 296.415C710.091 300.508 710.861 304.562 712.331 308.382C715.322 316.031 722.442 321.844 725.112 320.916Z" fill="white" stroke="#263238" stroke-width="1.04742" stroke-linecap="round" stroke-linejoin="round"/>
<path d="M756.638 336.367C756.638 336.367 764.571 378.686 773.565 383.041" stroke="#263238" stroke-width="1.04742" stroke-linecap="round" stroke-linejoin="round"/>
<path d="M680.615 377.701C680.615 377.701 690.537 340.343 691.2 336.708" stroke="#263238" stroke-width="1.04742" stroke-linecap="round" stroke-linejoin="round"/>
<path d="M769.456 355.491C769.456 355.491 763.965 356.721 763.965 360.698" stroke="#263238" stroke-width="1.04742" stroke-linecap="round" stroke-linejoin="round"/>
<path d="M676.166 356.097C676.166 356.097 682.282 360.073 681.676 366.189" stroke="#263238" stroke-width="1.04742" stroke-linecap="round" stroke-linejoin="round"/>
<path d="M717.14 528.837C720.208 528.837 725.547 526.167 726.797 525.523C728.046 526.167 733.386 528.837 736.434 528.837C739.918 528.837 751.317 530.333 756.77 530.333C762.223 530.333 766.237 528.837 760.746 525.372C755.994 522.361 746.034 515.242 743.497 513.424C737.646 518.764 726.077 517.438 726.077 517.438C723.734 517.085 721.413 516.592 719.128 515.962C715.663 514.958 710.702 512.989 710.702 512.989C710.702 512.989 698.3 521.907 692.847 525.372C687.394 528.837 691.37 530.333 696.823 530.333C702.276 530.333 713.675 528.837 717.14 528.837Z" fill="#035A04" stroke="#263238" stroke-width="1.04742" stroke-linecap="round" stroke-linejoin="round"/>
<path d="M726.077 513.065V426.609" stroke="white" stroke-width="1.04742" stroke-linecap="round" stroke-linejoin="round"/>
<path d="M726.797 525.429L726.077 517.344V513.064" stroke="#263238" stroke-width="1.04742" stroke-linecap="round" stroke-linejoin="round"/>
<path d="M719.128 423.636H733.5" stroke="white" stroke-width="1.04742" stroke-linecap="round" stroke-linejoin="round"/>
<path d="M700.345 243.474C700.345 243.474 690.045 249.647 691.579 255.062C693.112 260.477 697.77 261.519 696.748 264.529C695.725 267.54 692.147 269.433 696.218 271.327C698.536 272.365 700.962 273.146 703.451 273.656C703.451 273.656 707.237 286.796 713.751 289.106C720.264 291.416 731.549 289.883 739.54 288.86C742.239 288.596 744.794 287.516 746.864 285.764C748.934 284.012 750.421 281.67 751.128 279.052C751.904 276.231 747.776 279.582 745.713 276.477C743.649 273.372 746.754 265.4 749.064 258.432C751.374 251.464 744.425 238.324 735.412 233.95C726.399 229.576 709.188 231.867 700.345 243.474Z" fill="#263238" stroke="#263238" stroke-width="1.04742" stroke-linecap="round" stroke-linejoin="round"/>
<path d="M717.651 288.368C716.341 292.69 715.453 297.129 715.001 301.622C714.66 307.302 719.299 313.532 724.26 313.191C729.22 312.85 733.5 302.947 734.162 298.043C734.825 293.139 732.515 279.866 732.515 279.866C732.515 279.866 724.941 280.207 721.931 282.839C720.163 284.39 718.71 286.267 717.651 288.368Z" fill="white" stroke="#263238" stroke-width="1.04742" stroke-linecap="round" stroke-linejoin="round"/>
<path d="M710.929 250.688C710.929 250.688 711.176 258.413 718.92 265.836C723.575 270.337 729.096 273.848 735.147 276.155C735.012 277.847 734.576 279.501 733.859 281.04C733.522 281.683 732.998 282.209 732.355 282.547C731.713 282.885 730.983 283.02 730.262 282.934H727.668C727.668 282.934 723.881 291.814 719.299 293.101C714.716 294.389 703.45 293.499 701.898 282.157C700.345 270.815 700.099 261.538 701.386 259.209C702.674 256.88 710.929 250.688 710.929 250.688Z" fill="white" stroke="#263238" stroke-width="1.04742" stroke-linecap="round" stroke-linejoin="round"/>
<path d="M791.951 350.473C793.126 348.105 793.839 345.534 794.053 342.899C794.053 339.453 787.653 334.511 786.479 333.281C785.305 332.05 784.131 332.182 783.885 333.905C783.881 334.873 784.076 335.83 784.457 336.719C784.838 337.608 785.397 338.41 786.1 339.075C787.06 339.831 787.756 340.872 788.088 342.047C788.202 342.899 785.968 347.084 787.085 349.792C788.202 352.499 791.345 353.313 791.951 350.473Z" fill="white" stroke="#263238" stroke-width="1.04742" stroke-linecap="round" stroke-linejoin="round"/>
<path d="M535.52 331.141C535.52 331.141 563.391 340.059 580.148 360.887C596.905 381.715 607.906 378.723 628.734 371.793C649.563 364.863 657.496 340.059 686.258 360.887C715.019 381.715 720.965 389.63 744.766 377.739C768.566 365.848 781.442 337.086 803.273 346.989C825.105 356.892 815.164 407.58 817.152 432.195C819.141 456.81 816.149 518.48 821.11 526.413C826.071 534.347 876.645 528.307 876.645 528.307" stroke="#263238" stroke-width="3.14226" stroke-linecap="round" stroke-linejoin="round"/>
<path d="M587.722 298.043C587.722 298.043 582.174 288.992 573.995 291.359C565.341 293.859 560.873 306.223 558.847 313.929C556.821 321.636 555.458 329.967 551.746 337.143C551.746 337.143 535.349 336.859 526.204 334.208C519.226 332.033 512.363 329.505 505.641 326.634C505.641 326.634 502.403 322.109 500.112 321.219C497.821 320.329 491.875 318.587 491.44 319.951C491.004 321.314 498.332 325.801 498.332 325.801C498.332 325.801 484.699 327.695 483.336 329.153C481.972 330.611 492.973 334.966 492.973 334.966C492.973 334.966 497.082 336.291 507.08 333.905C507.08 333.905 543.756 357.195 551.065 359.865C558.373 362.534 562.425 363.386 567.405 353.768C572.385 344.149 588.915 320.291 591.547 310.691" fill="#035A04"/>
<path d="M587.722 298.043C587.722 298.043 582.174 288.992 573.995 291.359C565.341 293.859 560.873 306.223 558.847 313.929C556.821 321.636 555.458 329.967 551.746 337.143C551.746 337.143 535.349 336.859 526.204 334.208C519.226 332.033 512.363 329.505 505.641 326.634C505.641 326.634 502.403 322.109 500.112 321.219C497.821 320.329 491.875 318.587 491.44 319.951C491.004 321.314 498.332 325.801 498.332 325.801C498.332 325.801 484.699 327.695 483.336 329.153C481.972 330.611 492.973 334.966 492.973 334.966C492.973 334.966 497.082 336.291 507.08 333.905C507.08 333.905 543.756 357.195 551.065 359.865C558.373 362.534 562.425 363.386 567.405 353.768C572.385 344.149 588.915 320.291 591.547 310.691" stroke="#263238" stroke-width="1.04742" stroke-linecap="round" stroke-linejoin="round"/>
<path d="M515.165 330.497C509.807 328.49 505.698 326.71 505.698 326.71C505.698 326.71 502.46 322.185 500.169 321.295C497.878 320.405 491.932 318.663 491.497 320.026C491.061 321.39 498.389 325.877 498.389 325.877C498.389 325.877 484.756 327.77 483.393 329.228C482.03 330.686 493.031 335.041 493.031 335.041C493.031 335.041 497.139 336.367 507.137 333.981L512.268 337.219L515.165 330.497Z" fill="white" stroke="#263238" stroke-width="1.04742" stroke-linecap="round" stroke-linejoin="round"/>
<path d="M656.53 353.957C655.356 351.589 654.642 349.018 654.429 346.383C654.429 342.937 660.848 338.014 662.003 336.783C663.158 335.553 664.332 335.685 664.578 337.408C664.581 338.376 664.386 339.333 664.005 340.222C663.624 341.111 663.065 341.913 662.362 342.577C661.403 343.334 660.707 344.374 660.374 345.55C660.261 346.383 662.495 350.587 661.378 353.294C660.261 356.002 657.136 356.778 656.53 353.957Z" fill="white" stroke="#263238" stroke-width="1.04742" stroke-linecap="round" stroke-linejoin="round"/>
<path d="M660.942 343.562C660.942 343.562 655.66 353.313 658.727 356.816C661.795 360.319 664.767 348.939 665.335 345.796C665.903 342.653 662.893 339.491 660.942 343.562Z" fill="white" stroke="#263238" stroke-width="1.04742" stroke-linecap="round" stroke-linejoin="round"/>
<path d="M665.297 347.065C665.297 347.065 660.015 356.816 663.082 360.319C666.15 363.822 669.122 352.442 669.69 349.299C670.258 346.156 667.248 342.88 665.297 347.065Z" fill="white" stroke="#263238" stroke-width="1.04742" stroke-linecap="round" stroke-linejoin="round"/>
<path d="M670.088 347.879C670.088 347.879 664.805 357.63 667.872 361.133C670.94 364.636 673.912 353.256 674.48 350.113C675.048 346.97 672.038 343.789 670.088 347.879Z" fill="white" stroke="#263238" stroke-width="1.04742" stroke-linecap="round" stroke-linejoin="round"/>
<path d="M676.222 347.955C676.222 347.955 671.299 355.529 673.988 358.388C676.677 361.247 679.574 352.253 680.142 349.659C680.71 347.065 678.04 344.547 676.222 347.955Z" fill="white" stroke="#263238" stroke-width="1.04742" stroke-linecap="round" stroke-linejoin="round"/>
<path d="M788.429 343.941C788.429 343.941 793.712 353.692 790.644 357.195C787.577 360.698 784.604 349.299 784.036 346.156C783.468 343.013 786.479 339.851 788.429 343.941Z" fill="white" stroke="#263238" stroke-width="1.04742" stroke-linecap="round" stroke-linejoin="round"/>
<path d="M784.074 347.349C784.074 347.349 789.357 357.1 786.29 360.603C783.222 364.106 780.25 352.708 779.681 349.564C779.113 346.421 782.124 343.278 784.074 347.349Z" fill="white" stroke="#263238" stroke-width="1.04742" stroke-linecap="round" stroke-linejoin="round"/>
<path d="M779.246 348.258C779.246 348.258 784.528 358.009 781.461 361.512C778.394 365.015 775.421 353.635 774.872 350.473C774.323 347.311 777.352 344.168 779.246 348.258Z" fill="white" stroke="#263238" stroke-width="1.04742" stroke-linecap="round" stroke-linejoin="round"/>
<path d="M773.149 348.334C773.149 348.334 778.072 356.002 775.383 358.767C772.694 361.531 769.797 352.632 769.248 350.038C768.699 347.444 771.331 344.926 773.149 348.334Z" fill="white" stroke="#263238" stroke-width="1.04742" stroke-linecap="round" stroke-linejoin="round"/>
<path d="M121.686 456.223V466.977C117.954 471.057 115.27 475.982 113.866 481.33C111.575 490.116 104.399 527.928 106.292 528.913C108.186 529.897 126.003 533.968 131.683 533.116C138.197 532.131 143.745 532.472 140.469 528.875C137.193 525.277 119.982 515.223 119.982 515.223C119.982 515.223 138.916 487.843 143.12 477.732C147.323 467.621 148.005 451.981 148.005 451.981L122.595 451.016L121.686 456.223Z" fill="white" stroke="#263238" stroke-width="1.04742" stroke-linecap="round" stroke-linejoin="round"/>
<path d="M131.684 533.116C138.197 532.132 143.745 532.473 140.469 528.875C137.193 525.277 119.982 515.223 119.982 515.223L119.338 519.124L106.936 517.609C106.027 523.933 105.63 528.572 106.292 528.97C108.318 529.879 126.003 533.968 131.684 533.116Z" fill="#263238" stroke="#263238" stroke-width="1.04742" stroke-linecap="round" stroke-linejoin="round"/>
<path d="M183.942 461.79L186.877 467.016C185.661 469.362 184.945 471.935 184.776 474.571C184.606 477.208 184.986 479.852 185.893 482.334C188.828 491.46 195.682 525.031 195.682 526.982C195.682 528.932 199.904 530.238 203.256 530.238C206.607 530.238 215.885 530.882 217.192 530.882C218.498 530.882 227.946 532.511 231.203 530.56C234.46 528.61 227.057 524.691 222.171 522.418C217.286 520.146 206.531 514.277 206.531 514.277C206.531 514.277 209.125 487.541 209.125 475.802C209.125 464.062 211.738 460.162 208.16 452.985C204.581 445.809 182.087 456.261 182.087 456.261L183.942 461.79Z" fill="white" stroke="#263238" stroke-width="1.04742" stroke-linecap="round" stroke-linejoin="round"/>
<path d="M222.076 522.418C217.191 520.127 206.436 514.276 206.436 514.276L205.13 519.161L194.659 521.054C195.284 524.311 195.682 526.545 195.682 527C195.682 528.893 199.904 530.257 203.255 530.257C206.607 530.257 215.885 530.9 217.191 530.9C218.498 530.9 227.946 532.529 231.203 530.579C234.46 528.628 226.962 524.69 222.076 522.418Z" fill="#263238" stroke="#263238" stroke-width="1.04742" stroke-linecap="round" stroke-linejoin="round"/>
<path d="M166.39 244.818C163.835 240.452 160.915 236.309 157.661 232.435C153.174 227.379 139.105 227.663 132.933 234.328C126.76 240.993 128.71 252.884 131.039 256.255C133.368 259.625 138.064 275.379 138.064 275.379L139.181 286.626L165.33 295.904L159.99 277.632C159.99 277.632 170.12 275.738 170.953 272.576C171.786 269.414 169.268 258.792 169.268 258.792C169.268 258.792 172.639 256.539 172.355 254.569C172.07 252.6 166.39 244.818 166.39 244.818Z" fill="white" stroke="#263238" stroke-width="1.04742" stroke-linecap="round" stroke-linejoin="round"/>
<path d="M136.303 256.936C136.303 256.936 140.771 260.723 143.214 256.387C145.656 252.051 147.512 247.81 147.512 244.136C147.512 240.463 138.329 237.415 144.445 234.953C150.561 232.492 154.972 237.964 157.699 232.473C160.425 226.982 157.945 226.395 143.252 226.395C128.559 226.395 121.212 233.741 124.317 242.925C126.801 249.706 129.874 256.258 133.5 262.503L136.303 256.936Z" fill="#263238" stroke="#263238" stroke-width="1.04742" stroke-linecap="round" stroke-linejoin="round"/>
<path d="M167.223 251.313C167.223 252.702 166.811 254.06 166.039 255.216C165.267 256.371 164.17 257.271 162.886 257.803C161.603 258.334 160.19 258.474 158.828 258.203C157.465 257.932 156.213 257.262 155.231 256.28C154.248 255.298 153.579 254.046 153.308 252.683C153.037 251.321 153.176 249.908 153.708 248.625C154.24 247.341 155.14 246.244 156.295 245.472C157.451 244.7 158.809 244.288 160.198 244.288C162.061 244.288 163.848 245.028 165.165 246.346C166.483 247.663 167.223 249.45 167.223 251.313Z" stroke="#263238" stroke-width="1.04742" stroke-linecap="round" stroke-linejoin="round"/>
<path d="M166.201 245.083C167.018 244.749 167.892 244.575 168.776 244.572C170.238 244.575 171.659 245.063 172.815 245.959C173.97 246.856 174.796 248.111 175.162 249.527C175.528 250.943 175.413 252.441 174.837 253.785C174.26 255.129 173.254 256.244 171.976 256.955" stroke="#263238" stroke-width="1.04742" stroke-linecap="round" stroke-linejoin="round"/>
<path d="M153.174 251.313L136.303 256.936" stroke="#263238" stroke-width="1.04742" stroke-linecap="round" stroke-linejoin="round"/>
<path d="M141.151 260.591C141.151 260.591 137.78 253.566 134.41 254.91C131.04 256.255 132.725 267.293 136.095 268.411C137.228 268.666 138.405 268.646 139.528 268.352C140.651 268.059 141.688 267.501 142.552 266.725C142.552 266.725 145.373 272.633 148.743 274.299" fill="white"/>
<path d="M141.151 260.591C141.151 260.591 137.78 253.566 134.41 254.91C131.04 256.255 132.725 267.293 136.095 268.411C137.228 268.666 138.405 268.646 139.528 268.352C140.651 268.059 141.688 267.501 142.552 266.725C142.552 266.725 145.373 272.633 148.743 274.299" stroke="#263238" stroke-width="1.04742" stroke-linecap="round" stroke-linejoin="round"/>
<path d="M119.035 386.828L116.933 413.753L110.647 453.61C110.647 453.61 125.34 465.141 139.049 465.141C152.757 465.141 156.525 463.399 156.525 463.399L164.213 422.5L171.9 465.501C171.9 465.501 187.048 463.058 197.083 460.597C204.061 458.655 210.675 455.585 216.662 451.508L196.383 398.719L191.99 371.491C191.99 371.491 169.268 373.592 155.617 374.293C141.965 374.994 123.806 371.491 123.806 371.491L119.035 386.828Z" fill="#035A04" stroke="#263238" stroke-width="1.04742" stroke-linecap="round" stroke-linejoin="round"/>
<path d="M133.444 279.241C133.444 279.241 165.633 290.469 175.574 301.376C181.065 307.435 187.218 348.902 189.434 359.032C191.649 369.162 195.512 389.327 195.512 389.327C195.512 389.327 175.877 398.188 160.691 398.51C145.506 398.832 116.365 391.864 116.365 391.864C116.365 391.864 119.83 346.932 119.83 326.047C119.83 305.163 120.152 291.53 123.617 284.884C123.636 284.941 129.335 278.597 133.444 279.241Z" fill="#263238" stroke="#263238" stroke-width="1.04742" stroke-linecap="round" stroke-linejoin="round"/>
<path d="M124.98 395.121C124.98 395.121 126.722 424.488 124.98 435.338C123.757 442.337 121.644 449.152 118.694 455.617" stroke="#263238" stroke-width="1.04742" stroke-linecap="round" stroke-linejoin="round"/>
<path d="M125.681 409.114C128.31 408.211 130.659 406.64 132.498 404.555C134.337 402.471 135.603 399.944 136.171 397.223" stroke="#263238" stroke-width="1.04742" stroke-linecap="round" stroke-linejoin="round"/>
<path d="M112.389 447.929C112.389 447.929 129.885 462.963 157.151 457.396" stroke="#263238" stroke-width="1.04742" stroke-linecap="round" stroke-linejoin="round"/>
<path d="M171.143 456.659C171.143 456.659 199.81 453.515 212.401 445.127" stroke="#263238" stroke-width="1.04742" stroke-linecap="round" stroke-linejoin="round"/>
<path d="M299.368 265.646C299.368 265.646 296.603 267.691 286.965 274.735C277.328 281.779 284.921 292.42 284.921 292.42C284.921 292.42 278.028 293.499 268.826 303.175C259.624 312.85 272.935 329.456 285.375 332.05C297.815 334.644 312.357 319.25 316.712 304.973C321.067 290.697 315.311 269.168 312.414 264.719C309.517 260.269 299.368 265.646 299.368 265.646Z" fill="#263238" stroke="#263238" stroke-width="1.04742" stroke-linecap="round" stroke-linejoin="round"/>
<path d="M335.874 263.753C335.874 263.753 340.664 256.349 336.328 245.613C331.992 234.877 319.041 229.973 306.43 237.756C302.227 240.256 298.967 244.075 297.156 248.618C295.345 253.161 295.084 258.175 296.414 262.882C297.645 267.843 303.855 275.473 305.162 275.587C306.468 275.7 317.81 279.828 325.554 276.212C333.299 272.595 335.874 263.753 335.874 263.753Z" fill="#263238" stroke="#263238" stroke-width="1.04742" stroke-linecap="round" stroke-linejoin="round"/>
<path d="M280.149 513.689C280.149 513.689 289.143 527.682 304.764 530.068C320.385 532.453 306.335 518.442 303.704 516.321C301.072 514.2 282.27 509.618 280.149 513.689Z" fill="#737373" stroke="#263238" stroke-width="1.04742" stroke-linecap="round" stroke-linejoin="round"/>
<path d="M363.367 517.287C363.367 517.287 380.54 521.509 379.215 525.22C377.89 528.932 363.897 528.648 355.717 526.527C347.537 524.406 339.85 521.244 340.91 517.817C341.971 514.39 363.367 517.287 363.367 517.287Z" fill="#737373" stroke="#263238" stroke-width="1.04742" stroke-linecap="round" stroke-linejoin="round"/>
<path d="M314.534 291.587C314.534 291.587 291.548 294.957 287.344 303.08C283.141 311.203 289.067 355.453 289.067 355.453C289.067 355.453 279.259 377.095 279.126 391.031C278.994 404.967 285.204 429.487 284.712 435.603C284.22 441.719 277.934 511.341 277.934 513.235C277.934 515.128 291.188 519.37 310.293 521.642C329.398 523.914 365.941 517.116 365.941 517.116C365.941 517.116 365.222 476.028 367.134 451.527C369.047 427.026 366.32 405.005 361.454 395.859C356.588 386.714 333.923 353.787 333.923 353.787C333.923 353.787 344.905 333.868 345.587 325.158C346.268 316.448 342.728 311.903 334.434 301.887C331.97 298.932 328.94 296.499 325.523 294.731C322.106 292.962 318.37 291.893 314.534 291.587Z" fill="#035A04" stroke="#263238" stroke-width="1.04742" stroke-linecap="round" stroke-linejoin="round"/>
<path d="M333.98 353.806C333.98 353.806 344.962 333.887 345.644 325.177C346.325 316.467 342.785 311.923 334.491 301.906C334.094 301.414 333.677 300.978 333.26 300.524L332.957 300.808C324.437 314.725 296.262 338.507 287.874 345.437C288.518 351.363 289.067 355.453 289.067 355.453C289.067 355.453 279.259 377.095 279.126 391.031C279.283 397.381 279.916 403.71 281.02 409.966C300.92 398.605 327.542 377.342 341.951 365.488C337.445 358.824 333.98 353.806 333.98 353.806Z" fill="#737373" stroke="#263238" stroke-width="1.04742" stroke-linecap="round" stroke-linejoin="round"/>
<path d="M310.293 275.341C310.928 280.537 311.276 285.765 311.334 291C311.031 294.881 312.281 303.743 318.908 306.526C325.535 309.309 329.701 305.428 329.682 301.527C329.441 298.306 328.806 295.126 327.789 292.06L327.978 281.362C327.978 281.362 316.541 274.205 310.293 275.341Z" fill="white" stroke="#263238" stroke-width="1.04742" stroke-linecap="round" stroke-linejoin="round"/>
<path d="M304.347 268.392C304.347 268.392 299.481 264.113 299.33 270.285C299.178 276.458 304.859 278.503 306.108 278.92C307.163 279.063 308.233 278.799 309.1 278.181C309.1 278.181 317.923 285.755 325.005 286.247C332.086 286.74 334.965 283.464 336.631 270.607C338.297 257.751 325.024 244.705 325.024 244.705C325.024 244.705 313.663 265.646 304.347 268.392Z" fill="white" stroke="#263238" stroke-width="1.04742" stroke-linecap="round" stroke-linejoin="round"/>
<path d="M196.061 389.062C195.996 386.868 196.356 384.682 197.121 382.624C198.295 380.049 204.695 378.572 206.115 378.08C207.535 377.588 208.255 378.08 207.838 379.424C207.507 380.147 207.032 380.795 206.443 381.329C205.854 381.862 205.163 382.271 204.411 382.529C203.432 382.764 202.551 383.301 201.893 384.063C201.533 384.669 201.76 388.551 199.999 390.198C198.238 391.845 195.474 391.391 196.061 389.062Z" fill="white" stroke="#263238" stroke-width="1.04742" stroke-linecap="round" stroke-linejoin="round"/>
<path d="M341.175 332.126C341.175 332.126 318.454 329.153 308.437 345.02C298.421 360.887 279.695 416.403 244.987 425.341C210.28 434.278 200.359 362.856 179.531 364.845C159.687 366.738 145.827 364.845 133.917 386.657C127.555 398.34 95.7451 525.902 80.711 527.209C32.8255 531.393 2 528.667 2 528.667" stroke="#263238" stroke-width="3.14226" stroke-linecap="round" stroke-linejoin="round"/>
<path d="M134.921 280.15C134.921 280.15 129.676 278.048 122.67 282.233C115.665 286.417 96.8057 332.239 98.2069 337.143C99.608 342.047 119.527 351.136 130.718 354.279C141.908 357.422 162.187 361.285 162.187 361.285C162.187 361.285 168.473 371.074 170.575 371.415C173.632 371.373 176.677 371.025 179.663 370.373C179.663 370.373 183.45 373.517 184.908 370.014C186.366 366.511 183.507 361.985 180.364 358.482C177.221 354.98 163.929 353.238 163.929 353.238L127.896 328.395L143.044 300.429" fill="#263238"/>
<path d="M134.921 280.15C134.921 280.15 129.676 278.048 122.67 282.233C115.665 286.417 96.8057 332.239 98.2069 337.143C99.608 342.047 119.527 351.136 130.718 354.279C141.908 357.422 162.187 361.285 162.187 361.285C162.187 361.285 168.473 371.074 170.575 371.415C173.632 371.373 176.677 371.025 179.663 370.373C179.663 370.373 183.45 373.517 184.908 370.014C186.366 366.511 183.507 361.985 180.364 358.482C177.221 354.98 163.929 353.238 163.929 353.238L127.896 328.395L143.044 300.429" stroke="#263238" stroke-width="1.04742" stroke-linecap="round" stroke-linejoin="round"/>
<path d="M170.575 371.396C173.631 371.355 176.676 371.006 179.663 370.355C179.663 370.355 183.45 373.498 184.908 369.995C186.366 366.492 183.507 361.967 180.364 358.464C177.221 354.961 163.928 353.219 163.928 353.219L127.896 328.396L133.273 318.379C119.811 309.991 110.874 310.616 106.045 312.301C101.217 323.889 97.5439 334.871 98.1876 337.124C99.5888 342.028 119.508 351.117 130.698 354.26C141.889 357.403 162.168 361.266 162.168 361.266C162.168 361.266 168.473 371.055 170.575 371.396Z" fill="white" stroke="#263238" stroke-width="1.04742" stroke-linecap="round" stroke-linejoin="round"/>
<path d="M395.802 332.902C394.268 316.372 386.334 302.796 376.867 297.399L376.564 294.029L351.836 296.32C337.919 297.608 328.319 316.713 330.383 338.98C332.447 361.247 345.398 378.231 359.315 376.849L384.043 374.558L383.721 371.187C392.053 364.22 397.335 349.432 395.802 332.902Z" fill="#263238" stroke="#263238" stroke-width="1.04742" stroke-linecap="round" stroke-linejoin="round"/>
<path d="M406.992 331.917C405.382 314.554 397.524 300.259 387.508 294.578L387.167 291.038L376.583 292.022C361.965 293.385 351.873 313.437 354.031 336.84C356.19 360.243 369.823 378.099 384.44 376.736L395.025 375.751L394.703 372.21C403.451 364.75 408.601 349.224 406.992 331.917Z" fill="white" stroke="#263238" stroke-width="1.04742" stroke-linecap="round" stroke-linejoin="round"/>
<path d="M417.595 330.876C419.772 354.279 409.68 374.331 395.044 375.694C380.407 377.057 366.793 359.183 364.578 335.799C362.363 312.415 372.493 292.249 387.11 290.981C401.728 289.712 415.398 307.492 417.595 330.876Z" fill="white" stroke="#263238" stroke-width="1.04742" stroke-linecap="round" stroke-linejoin="round"/>
<path d="M428.956 317.205L387.887 320.992C387.311 321.047 386.73 320.987 386.177 320.817C385.624 320.646 385.111 320.368 384.666 319.999C384.22 319.63 383.853 319.176 383.583 318.664C383.314 318.152 383.149 317.592 383.096 317.016C383.042 316.44 383.101 315.859 383.272 315.306C383.442 314.753 383.72 314.24 384.089 313.795C384.459 313.349 384.913 312.982 385.424 312.712C385.936 312.443 386.497 312.278 387.073 312.225L428.142 308.438C428.718 308.384 429.299 308.443 429.851 308.614C430.404 308.784 430.918 309.062 431.363 309.431C431.808 309.801 432.176 310.255 432.445 310.767C432.714 311.278 432.88 311.839 432.932 312.415C432.987 312.991 432.927 313.572 432.757 314.124C432.587 314.677 432.309 315.191 431.939 315.636C431.57 316.081 431.116 316.449 430.604 316.718C430.092 316.987 429.532 317.153 428.956 317.205Z" fill="#737373" stroke="#263238" stroke-width="1.04742" stroke-linecap="round" stroke-linejoin="round"/>
<path d="M432.005 349.754L390.936 353.541C390.36 353.595 389.779 353.536 389.226 353.365C388.673 353.195 388.16 352.917 387.714 352.548C387.269 352.178 386.902 351.724 386.632 351.212C386.363 350.7 386.197 350.14 386.145 349.564C386.09 348.988 386.15 348.407 386.32 347.855C386.491 347.302 386.769 346.788 387.138 346.343C387.508 345.898 387.961 345.53 388.473 345.261C388.985 344.992 389.545 344.826 390.121 344.774L431.191 340.987C432.351 340.887 433.505 341.248 434.402 341.992C435.298 342.736 435.866 343.804 435.981 344.963C436.036 345.539 435.976 346.12 435.806 346.673C435.635 347.226 435.357 347.739 434.988 348.184C434.619 348.63 434.165 348.997 433.653 349.267C433.141 349.536 432.581 349.701 432.005 349.754Z" fill="#737373" stroke="#263238" stroke-width="1.04742" stroke-linecap="round" stroke-linejoin="round"/>
<path d="M300.333 294.673C300.333 294.673 290.449 296.566 285.772 302.247C281.095 307.927 271.495 351.761 273.711 356.797C275.926 361.834 311.428 368.158 322.392 369.067C331.207 369.416 340.036 369.023 348.786 367.893C348.786 367.893 358.254 367.647 360.848 367.211C363.442 366.776 368.213 364.22 368.289 363.254C368.365 362.288 367.891 359.978 364.351 359.694C360.81 359.41 353.217 356.873 352.251 356.797C354.526 356.199 356.834 355.731 359.162 355.396C359.162 355.396 359.655 353.503 355.754 353.503C351.854 353.503 348.313 353.237 346.836 355.396C345.78 357.078 344.88 358.852 344.147 360.698C344.147 360.698 322.278 362.231 310.406 356.437C298.534 350.643 294.785 348.712 294.785 348.712L303.305 314.63" fill="#035A04"/>
<path d="M300.333 294.673C300.333 294.673 290.449 296.566 285.772 302.247C281.095 307.927 271.495 351.761 273.711 356.797C275.926 361.834 311.428 368.158 322.392 369.067C331.207 369.416 340.036 369.023 348.786 367.893C348.786 367.893 358.254 367.647 360.848 367.211C363.442 366.776 368.213 364.22 368.289 363.254C368.365 362.288 367.891 359.978 364.351 359.694C360.81 359.41 353.217 356.873 352.251 356.797C354.526 356.199 356.834 355.731 359.162 355.396C359.162 355.396 359.655 353.503 355.754 353.503C351.854 353.503 348.313 353.237 346.836 355.396C345.78 357.078 344.88 358.852 344.147 360.698C344.147 360.698 322.278 362.231 310.406 356.437C298.534 350.643 294.785 348.712 294.785 348.712L303.305 314.63" stroke="#263238" stroke-width="1.04742" stroke-linecap="round" stroke-linejoin="round"/>
<path d="M360.792 367.268C363.423 366.833 368.157 364.276 368.233 363.311C368.309 362.345 367.835 360.035 364.294 359.751C360.754 359.467 353.161 356.93 352.195 356.854C354.47 356.256 356.778 355.788 359.106 355.453C359.106 355.453 359.599 353.559 355.698 353.559C351.798 353.559 348.257 353.294 346.78 355.453C345.724 357.134 344.824 358.909 344.091 360.755C344.091 360.755 322.222 362.288 310.35 356.494C298.478 350.7 294.729 348.769 294.729 348.769L299.917 327.941C293.163 325.162 286.037 323.394 278.767 322.696C275.226 336.973 272.329 353.787 273.655 356.778C275.851 361.815 311.372 368.139 322.335 369.048C331.151 369.397 339.98 369.004 348.73 367.874C348.73 367.874 358.216 367.704 360.792 367.268Z" fill="white" stroke="#263238" stroke-width="1.04742" stroke-linecap="round" stroke-linejoin="round"/>
<path d="M200.87 385.389C200.87 385.389 193.561 390.861 194.678 394.477C195.795 398.094 201.892 390.69 203.407 388.513C204.922 386.335 203.729 383.041 200.87 385.389Z" fill="white" stroke="#263238" stroke-width="1.04742" stroke-linecap="round" stroke-linejoin="round"/>
<path d="M202.309 390.293C202.309 390.293 195.019 395.765 196.117 399.381C197.215 402.998 203.35 395.594 204.846 393.417C206.342 391.239 205.168 387.907 202.309 390.293Z" fill="white" stroke="#263238" stroke-width="1.04742" stroke-linecap="round" stroke-linejoin="round"/>
<path d="M205.774 393.473C205.774 393.473 198.484 398.945 199.601 402.562C200.718 406.178 206.815 398.775 208.33 396.598C209.845 394.42 208.652 391.088 205.774 393.473Z" fill="white" stroke="#263238" stroke-width="1.04742" stroke-linecap="round" stroke-linejoin="round"/>
<path d="M208.634 396.049C208.634 396.049 202.328 400.101 203.389 403.093C204.449 406.084 209.656 400.423 210.963 398.681C212.269 396.939 211.209 394.136 208.634 396.049Z" fill="white" stroke="#263238" stroke-width="1.04742" stroke-linecap="round" stroke-linejoin="round"/>
</svg>
