<svg width="24" height="25" viewBox="0 0 24 25" fill="none" xmlns="http://www.w3.org/2000/svg">
<circle cx="11.9994" cy="12.5003" r="9.33335" stroke="#035A04" stroke-width="1.5"/>
<circle cx="12.0006" cy="10.7633" r="2.55526" fill="#035A04" stroke="#035A04" stroke-width="1.5"/>
<path d="M5.84846 19.9463C6.79227 17.5474 9.12969 15.8494 11.8637 15.8494C14.5977 15.8494 16.9351 17.5474 17.8789 19.9463" stroke="#035A04" stroke-width="1.5"/>
<path d="M7.96386 17.7316L6.5 19.6875L7.78927 20.6445C8.09035 20.868 8.44819 21.0024 8.82197 21.0322L12.7188 21.3438H14.8389C15.2098 21.3438 15.5734 21.2406 15.8891 21.0458L16.5723 20.6242C17.0709 20.3166 17.3183 19.7256 17.1874 19.1545C17.1264 18.8881 16.9869 18.6461 16.787 18.4596L16.0804 17.8007C15.9441 17.6736 15.7908 17.5661 15.6247 17.4815L14.4858 16.9009C14.3088 16.8106 14.1192 16.7472 13.9235 16.7128L12.1717 16.4052C12.0574 16.3851 11.9417 16.375 11.8257 16.375H10.6865C10.3788 16.375 10.0753 16.446 9.79949 16.5825L8.67801 17.1375C8.39662 17.2767 8.15197 17.4802 7.96386 17.7316Z" fill="#035A04"/>
</svg>
